<?xml version="1.0" standalone="no"?>
<!DOCTYPE svg PUBLIC "-//W3C//DTD SVG 20010904//EN"
 "http://www.w3.org/TR/2001/REC-SVG-20010904/DTD/svg10.dtd">
<svg version="1.0" xmlns="http://www.w3.org/2000/svg"
 width="1433.000000pt" height="1419.000000pt" viewBox="0 0 1433.000000 1419.000000"
 preserveAspectRatio="xMidYMid meet">

<g transform="translate(0.000000,1419.000000) scale(0.100000,-0.100000)"
fill="#000000" stroke="none">
<path d="M8100 12944 c-30 -30 -66 -65 -80 -78 -48 -46 -92 -117 -95 -155 -3
-41 -13 -71 -26 -71 -4 0 -11 -16 -14 -35 -3 -19 -7 -50 -10 -69 -3 -19 -17
-50 -30 -70 -19 -28 -25 -50 -25 -90 0 -29 -9 -79 -20 -111 -11 -32 -18 -66
-15 -75 3 -9 -1 -33 -10 -53 -8 -20 -15 -49 -15 -65 0 -16 -7 -46 -15 -65 -8
-20 -15 -51 -15 -69 0 -19 -6 -43 -14 -54 -8 -11 -18 -38 -22 -60 -4 -21 -21
-66 -39 -99 -21 -40 -34 -82 -39 -124 -5 -40 -15 -74 -27 -89 -10 -14 -19 -32
-19 -41 0 -9 -7 -26 -15 -39 -14 -19 -14 -27 -2 -64 11 -30 21 -44 36 -46 15
-2 24 -13 28 -34 3 -16 12 -32 20 -35 21 -8 26 3 13 26 -9 17 -8 22 5 28 11 4
28 -5 48 -26 28 -28 30 -33 19 -52 -9 -14 -10 -25 -4 -31 11 -11 137 -19 264
-18 85 1 143 -14 188 -50 35 -28 135 -64 151 -54 11 7 59 -25 59 -40 0 -15 88
-108 130 -136 36 -25 39 -28 80 -80 14 -18 37 -45 53 -61 15 -17 27 -41 27
-54 0 -27 32 -65 55 -65 28 0 67 -24 80 -50 12 -23 12 -30 -1 -49 -9 -12 -19
-19 -24 -16 -5 3 -11 1 -15 -5 -3 -5 8 -23 25 -40 16 -16 30 -34 30 -40 0 -5
9 -10 20 -10 11 0 20 4 20 9 0 5 9 11 19 14 17 4 19 13 17 64 -2 56 -5 62 -44
98 -33 30 -42 44 -42 71 0 20 -6 37 -16 42 -9 5 -18 29 -22 59 -6 40 -16 61
-52 102 -24 28 -50 51 -57 51 -7 0 -19 16 -27 35 -13 29 -20 35 -45 35 -22 0
-39 9 -58 30 -14 17 -35 30 -46 30 -17 0 -19 5 -15 51 5 46 3 51 -18 60 -13 4
-24 15 -24 24 0 8 -9 23 -20 32 -12 11 -20 30 -20 50 0 18 -6 43 -12 54 -10
17 -10 23 0 26 6 3 12 11 12 18 0 21 41 25 100 8 30 -8 60 -19 65 -23 19 -15
71 -15 93 -1 24 15 33 83 15 110 -13 20 -13 29 -2 63 10 32 10 49 0 91 -7 29
-14 79 -15 112 0 33 -4 65 -9 72 -4 6 1 25 10 42 15 25 16 34 5 48 -23 34 -24
41 -2 63 15 15 19 28 14 43 -9 32 -24 47 -44 47 -20 0 -37 19 -34 38 1 6 2 17
3 23 0 5 6 7 11 4 6 -3 10 -1 10 4 0 14 -17 14 -25 1 -9 -14 -58 -13 -73 2 -7
7 -12 21 -12 33 0 12 -12 27 -30 37 -36 21 -40 41 -6 32 31 -7 45 14 21 33
-14 9 -21 10 -26 2 -8 -14 -29 -3 -29 14 0 7 4 6 11 -3 9 -12 10 -10 6 8 -3
13 -1 37 4 54 15 55 -44 121 -78 87 -14 -14 -56 7 -48 24 4 7 -1 3 -10 -8 -14
-17 -17 -18 -25 -5 -14 22 -12 34 9 47 13 8 17 19 14 37 -6 30 -19 32 -51 10
-18 -13 -23 -24 -21 -53 2 -20 8 -39 14 -43 6 -5 3 -8 -7 -8 -15 0 -18 -9 -19
-47 -1 -27 -2 -53 -3 -59 -2 -16 -33 -44 -50 -44 -19 0 -36 -30 -36 -64 0 -15
-8 -30 -19 -36 -25 -13 -39 -57 -48 -155 -13 -149 -2 -238 35 -278 23 -24 26
-36 27 -95 0 -50 -6 -79 -22 -114 -22 -45 -24 -46 -55 -38 -34 10 -49 26 -41
46 2 7 -2 23 -10 36 -8 13 -30 66 -48 118 -41 118 -47 233 -15 289 15 27 17
37 8 52 -7 10 -17 52 -23 93 -10 66 -9 80 9 133 11 32 24 88 27 123 10 93 41
213 60 226 8 6 15 24 15 39 0 35 77 122 133 150 29 15 44 31 52 55 14 43 42
53 77 29 56 -40 83 -7 49 59 -25 48 -34 52 -124 51 l-72 -1 -55 -54z m30
-1439 c0 -8 -4 -15 -10 -15 -5 0 -10 7 -10 15 0 8 5 15 10 15 6 0 10 -7 10
-15z m218 -288 c3 -12 -3 -17 -22 -17 -28 0 -29 1 -20 25 8 20 38 15 42 -8z"/>
<path d="M8364 12849 c-3 -6 4 -33 16 -60 20 -42 28 -49 52 -49 34 0 35 5 2
69 -25 50 -53 66 -70 40z"/>
<path d="M6410 12701 c-39 -8 -81 -33 -119 -71 -21 -21 -25 -36 -27 -84 -1
-60 -17 -86 -51 -86 -7 0 -13 -4 -13 -9 0 -5 -10 -11 -22 -13 -20 -3 -23 -8
-20 -46 2 -30 -3 -50 -18 -70 -17 -23 -19 -33 -10 -56 5 -15 10 -40 10 -56 0
-26 -3 -28 -29 -24 -28 5 -29 3 -29 -33 0 -21 -2 -77 -5 -124 -5 -93 1 -120
23 -94 8 9 10 28 7 50 -5 29 -2 37 16 46 28 15 38 30 32 48 -3 8 0 11 9 8 10
-4 14 3 13 30 -1 26 5 41 23 56 14 11 24 24 22 30 -2 6 -1 21 3 34 5 20 12 23
50 23 42 0 48 3 78 46 49 70 50 90 5 177 -11 23 -3 49 20 63 10 6 58 14 107
18 97 7 131 -2 150 -40 5 -11 16 -26 23 -34 24 -28 92 -131 92 -140 0 -5 6
-15 13 -22 50 -52 77 -104 77 -148 0 -25 9 -63 19 -84 11 -21 19 -45 18 -54 0
-9 5 -45 12 -79 10 -43 19 -64 31 -68 10 -3 20 -12 23 -19 7 -16 -33 -76 -50
-76 -7 0 -13 -4 -13 -9 0 -5 -3 -17 -7 -27 -4 -11 -3 -15 5 -10 6 3 16 -3 22
-14 6 -12 20 -30 31 -41 10 -10 19 -30 19 -43 0 -13 3 -31 6 -39 6 -18 -32
-57 -56 -57 -29 0 -60 45 -70 101 -11 68 -30 120 -40 114 -9 -5 -20 18 -20 41
0 17 31 19 48 2 8 -8 12 -9 12 -1 0 6 -5 13 -10 15 -6 2 -12 14 -13 27 -3 45
-87 80 -87 36 0 -12 -7 -14 -27 -9 -39 9 -53 29 -43 64 8 27 5 31 -39 59 -26
17 -51 31 -55 31 -5 0 -17 11 -28 25 -23 30 -41 32 -68 5 -28 -28 -64 -35 -84
-15 -9 9 -14 21 -11 26 4 5 2 9 -3 9 -4 0 -16 16 -25 35 -18 38 -57 50 -57 17
0 -10 -5 -23 -12 -30 -7 -7 -13 -43 -13 -90 -1 -57 -7 -88 -22 -117 -22 -43
-20 -61 9 -85 17 -14 18 -17 3 -35 -14 -18 -16 -18 -27 -4 -7 9 -35 18 -61 21
-47 5 -48 5 -54 -23 -4 -20 -12 -29 -24 -29 -11 0 -22 0 -26 0 -5 0 -8 8 -8
18 0 9 5 17 11 17 16 0 44 31 44 49 0 21 -17 29 -46 22 -20 -5 -24 -13 -24
-42 0 -20 -4 -33 -9 -29 -17 10 -30 -29 -29 -85 0 -29 -4 -55 -9 -59 -20 -13
-41 -99 -36 -144 4 -30 0 -60 -10 -86 -13 -31 -14 -45 -5 -69 10 -25 8 -38 -7
-73 -12 -25 -19 -61 -17 -90 1 -27 -5 -64 -13 -82 -14 -33 -12 -47 7 -47 4 0
8 11 8 25 0 14 4 25 9 25 12 0 21 -25 21 -58 0 -14 7 -33 16 -43 8 -9 16 -40
18 -70 2 -47 6 -54 24 -57 24 -4 112 36 125 55 10 16 35 16 71 1 26 -12 27
-15 21 -65 -4 -30 -1 -75 7 -107 11 -51 15 -55 43 -58 24 -2 31 -8 33 -31 5
-43 -45 -157 -88 -199 -56 -55 -81 -52 -115 17 -16 30 -32 55 -37 55 -5 0 -7
12 -6 27 3 26 1 28 -32 25 -19 -2 -39 -8 -45 -13 -5 -6 -20 2 -36 21 -32 34
-41 36 -63 14 -22 -21 -20 -27 15 -53 37 -27 79 -112 79 -160 0 -24 -7 -39
-26 -54 -23 -18 -25 -25 -20 -61 4 -23 14 -52 23 -66 19 -28 20 -103 3 -136
-16 -29 -7 -52 25 -64 23 -9 69 -54 70 -68 1 -4 4 -17 8 -29 8 -22 -20 -92
-49 -121 -8 -7 -14 -34 -15 -60 -2 -71 -11 -98 -36 -94 -24 3 -47 -22 -39 -43
3 -9 18 -20 33 -26 26 -9 28 -13 30 -72 1 -34 2 -65 2 -69 1 -5 8 -8 16 -8 9
0 20 -11 25 -25 5 -14 12 -25 15 -25 4 0 4 4 0 9 -3 6 3 9 14 8 11 0 17 -5 15
-9 -3 -4 0 -8 6 -8 7 0 8 -6 0 -19 -25 -49 0 -91 55 -91 28 0 35 5 44 30 5 17
14 30 19 30 6 0 25 14 43 30 32 30 69 37 76 14 2 -7 -3 -19 -12 -27 -21 -22
-19 -29 8 -25 27 4 35 39 13 61 -15 14 -13 19 19 52 36 39 39 39 102 14 28
-11 34 -11 52 6 12 10 21 26 21 35 0 17 -23 44 -31 36 -2 -3 -15 4 -29 14 -22
16 -24 26 -27 112 -4 85 -2 96 16 113 12 10 21 30 21 44 1 47 88 174 135 197
20 9 42 28 50 43 7 14 32 43 54 64 30 28 41 47 41 68 0 19 8 34 25 45 14 9 25
23 25 30 0 8 11 32 26 53 27 41 31 61 20 102 -7 23 -2 30 37 55 25 17 51 45
62 67 10 20 35 55 56 78 20 22 56 68 80 102 46 65 71 96 130 156 19 20 43 49
53 64 24 39 43 61 109 126 36 37 57 66 57 80 0 14 -19 42 -50 72 -34 33 -57
68 -71 105 -13 34 -38 74 -65 101 -24 24 -44 51 -44 59 0 8 -9 32 -19 53 -11
21 -23 62 -27 92 -6 50 -30 109 -45 109 -11 0 -29 51 -29 85 0 19 -4 36 -9 39
-5 3 -14 28 -21 55 -6 27 -17 52 -25 54 -12 5 -15 13 -34 112 -5 28 -19 67
-30 85 -11 19 -25 46 -31 59 -6 13 -24 39 -40 59 -18 22 -30 48 -30 65 0 21
-12 41 -40 69 -22 22 -40 47 -40 54 0 31 -92 134 -153 170 -34 21 -73 46 -86
56 -24 18 -59 21 -121 9z m498 -1200 c2 -14 15 -33 28 -44 13 -10 24 -25 24
-32 0 -8 9 -17 20 -20 23 -7 23 -8 9 -76 -14 -63 -35 -89 -72 -89 -37 0 -65
-15 -103 -55 -20 -21 -28 -38 -23 -46 6 -10 10 -10 23 0 13 11 16 9 21 -12 4
-13 5 -39 3 -58 -2 -29 -7 -34 -30 -37 -32 -4 -48 -43 -29 -66 9 -11 6 -20
-14 -41 -14 -16 -25 -32 -25 -37 0 -19 25 -88 32 -88 5 0 8 -7 8 -15 0 -8 -4
-15 -10 -15 -5 0 -10 -7 -10 -15 0 -10 -11 -15 -35 -15 -19 0 -35 4 -35 8 0 5
-16 17 -35 27 -19 11 -32 21 -30 24 3 2 -4 11 -14 20 -10 9 -21 29 -25 44 -4
16 -18 39 -31 51 -14 13 -25 32 -25 43 0 27 35 57 68 59 15 1 33 2 40 3 16 1
15 40 -1 47 -22 8 1 93 27 106 23 10 54 68 48 87 -2 6 -10 11 -17 11 -19 0
-25 24 -25 101 0 66 1 70 28 81 15 6 48 14 73 19 29 4 56 17 73 34 31 31 60
29 64 -4z m-808 -60 c0 -12 -20 -25 -27 -18 -7 7 6 27 18 27 5 0 9 -4 9 -9z
m560 -178 c0 -16 -6 -23 -20 -23 -18 0 -29 28 -15 42 14 14 35 2 35 -19z m238
-109 c15 -6 15 -7 -3 -14 -33 -14 -45 -11 -45 10 0 19 3 19 48 4z m-350 -484
c12 -12 22 -27 22 -34 0 -15 -54 -56 -74 -56 -19 0 -30 17 -15 22 7 2 13 22
14 43 1 22 3 41 4 43 5 8 31 -1 49 -18z m-106 -242 c-9 -9 -15 -9 -24 0 -10
10 -10 15 2 22 20 12 38 -6 22 -22z m-34 -65 c-4 -22 -22 -20 -26 1 -2 10 3
16 13 16 10 0 15 -7 13 -17z m-400 -735 c21 -21 13 -38 -18 -38 -28 0 -29 1
-18 25 13 28 19 30 36 13z m180 -184 c25 -18 29 -46 7 -68 -8 -8 -15 -19 -15
-25 0 -20 -15 -11 -43 24 -27 34 -28 37 -13 60 19 29 33 31 64 9z"/>
<path d="M8316 12595 c-8 -32 7 -56 25 -38 8 8 7 18 -4 38 l-14 28 -7 -28z"/>
<path d="M8506 12612 c-2 -4 -1 -14 4 -21 10 -17 31 -5 23 14 -6 16 -19 20
-27 7z"/>
<path d="M6308 12239 c-10 -6 -18 -21 -18 -35 0 -21 4 -25 23 -22 14 2 23 11
25 27 5 30 -8 42 -30 30z"/>
<path d="M5882 10996 c2 -15 8 -26 13 -26 15 0 12 43 -3 48 -10 3 -13 -4 -10
-22z"/>
<path d="M7750 10993 c-79 -5 -87 -9 -64 -34 12 -13 27 -19 42 -16 18 3 26 -2
34 -19 7 -14 26 -34 45 -45 18 -11 33 -24 33 -29 0 -5 2 -15 5 -22 3 -8 -3
-25 -15 -38 -11 -13 -20 -31 -20 -41 0 -10 -8 -24 -18 -31 -10 -7 -21 -23 -24
-35 -5 -20 -2 -23 24 -23 22 0 29 -4 25 -14 -4 -10 4 -17 25 -22 34 -7 67 -39
68 -66 1 -44 40 -68 54 -33 3 8 16 15 30 15 26 0 47 -16 73 -56 18 -28 66 -54
99 -54 30 0 41 34 20 64 -19 29 -19 141 0 157 37 31 20 111 -31 145 -14 9 -25
22 -25 29 0 7 -11 22 -25 32 -18 13 -22 22 -15 33 6 10 10 11 10 3 0 -7 7 -13
15 -13 12 0 13 4 3 25 -11 24 -45 31 -41 9 3 -14 -7 -16 -102 -17 -60 -2 -79
1 -77 11 1 7 -7 30 -18 52 -17 33 -25 40 -48 38 -15 -1 -52 -3 -82 -5z m117
-359 c-3 -3 -12 -4 -19 -1 -8 3 -5 6 6 6 11 1 17 -2 13 -5z"/>
<path d="M5945 10850 c-3 -5 -20 -7 -37 -3 -30 6 -31 5 -25 -25 4 -19 1 -42
-8 -59 -14 -25 -13 -29 3 -40 9 -7 24 -19 33 -28 20 -19 29 -10 29 27 0 16 9
53 19 83 16 44 17 55 6 55 -8 0 -17 -4 -20 -10z"/>
<path d="M7428 10853 c-22 -6 -23 -17 -2 -38 26 -25 83 -2 71 29 -6 15 -33 19
-69 9z"/>
<path d="M7588 10750 c-14 -23 -33 -42 -48 -45 -38 -10 -87 -51 -94 -80 -7
-25 19 -85 36 -85 4 0 8 -9 8 -19 0 -45 51 -32 68 17 10 30 40 42 103 42 22 0
32 6 39 25 6 15 17 25 30 25 14 0 20 7 20 21 0 17 -3 19 -14 10 -12 -10 -19
-5 -40 26 -14 21 -26 48 -26 60 0 21 -25 43 -49 43 -6 0 -21 -18 -33 -40z
m-68 -181 c0 -6 -4 -7 -10 -4 -5 3 -10 11 -10 16 0 6 5 7 10 4 6 -3 10 -11 10
-16z"/>
<path d="M7400 10669 c0 -5 5 -7 10 -4 6 3 10 8 10 11 0 2 -4 4 -10 4 -5 0
-10 -5 -10 -11z"/>
<path d="M7197 10619 c-44 -23 -47 -52 -7 -57 23 -2 44 19 68 71 6 12 -21 6
-61 -14z"/>
<path d="M8573 10434 c-3 -8 -1 -20 5 -26 9 -9 8 -15 0 -26 -7 -7 -11 -30 -10
-49 2 -29 0 -34 -13 -29 -9 3 -26 1 -37 -5 -19 -10 -20 -17 -13 -68 4 -31 9
-76 10 -101 2 -57 7 -66 78 -139 31 -32 62 -74 69 -92 6 -19 27 -51 47 -71 20
-20 53 -54 74 -76 35 -37 43 -41 108 -47 61 -6 71 -10 79 -30 11 -29 25 -38
49 -30 25 8 34 32 20 56 -8 15 -17 19 -37 14 l-27 -6 2 138 c0 76 4 167 7 203
11 114 -30 178 -137 212 -36 11 -38 13 -34 52 3 35 0 44 -32 73 -59 54 -193
85 -208 47z"/>
<path d="M7024 10300 c-34 -13 -35 -35 -3 -47 16 -6 27 -7 23 -2 -3 5 6 9 20
9 14 0 26 -4 26 -10 0 -16 27 -12 45 6 30 30 15 49 -40 51 -28 1 -59 -2 -71
-7z"/>
<path d="M7780 10250 c-30 -10 -56 -23 -58 -29 -5 -14 -49 -14 -57 -1 -11 17
-39 10 -85 -24 -32 -23 -48 -43 -56 -71 -6 -23 -18 -41 -31 -46 -24 -9 -37
-58 -18 -66 19 -7 53 14 60 36 6 20 33 31 81 31 90 0 76 -64 -23 -111 -35 -16
-63 -33 -63 -38 0 -8 -107 -79 -169 -112 -21 -11 -57 -22 -79 -25 -34 -4 -45
0 -83 32 -24 20 -47 41 -50 46 -10 15 1 50 24 75 28 31 19 98 -18 127 -24 19
-30 37 -37 114 -1 7 -9 10 -20 6 -11 -3 -20 0 -24 10 -8 22 -23 20 -45 -6 -18
-20 -21 -20 -58 -6 -39 16 -39 16 -70 -16 -17 -18 -31 -36 -31 -40 0 -4 -7
-23 -16 -41 -22 -47 -16 -79 17 -83 14 -2 31 4 39 12 15 19 40 21 41 4 1 -7 3
-30 4 -51 3 -32 0 -39 -19 -47 -13 -5 -26 -20 -30 -35 -4 -14 -11 -23 -17 -20
-5 4 -8 3 -7 -2 1 -4 -6 -22 -16 -40 -18 -28 -48 -46 -123 -68 -9 -3 -9 -11 2
-32 21 -45 30 -134 14 -144 -11 -6 -11 -13 -3 -26 9 -14 25 -18 80 -18 159 0
182 -4 210 -30 15 -14 34 -23 42 -20 8 3 26 8 40 11 15 3 48 16 73 30 l46 23
21 -20 c23 -21 29 -54 12 -64 -8 -5 -7 -12 1 -22 25 -30 67 -43 133 -41 36 1
68 -1 72 -5 7 -7 -26 -77 -36 -77 -3 0 -14 -16 -24 -35 -19 -34 -19 -35 2 -52
20 -17 26 -33 23 -61 -2 -21 -52 -36 -121 -37 l-64 0 -28 -55 c-15 -30 -40
-64 -55 -75 -15 -11 -33 -26 -39 -34 -8 -10 -23 -12 -57 -7 l-47 7 0 -40 c0
-22 -4 -42 -9 -45 -4 -3 -6 -17 -3 -32 7 -36 -39 -80 -67 -64 -11 5 -24 10
-29 10 -11 0 -52 -73 -52 -93 0 -9 -6 -20 -13 -24 -10 -6 -87 -127 -87 -137 0
-1 37 -1 83 0 74 3 85 1 110 -21 15 -13 27 -28 27 -33 0 -6 7 -13 16 -16 24
-9 5 -28 -22 -22 -17 5 -26 2 -30 -8 -8 -20 -85 -14 -139 10 -22 9 -52 16 -67
15 -17 -2 -28 3 -29 11 -5 47 -4 70 3 74 4 3 5 11 1 19 -3 10 -19 15 -44 15
-33 0 -40 -4 -45 -25 -7 -27 -44 -36 -44 -10 0 20 -34 19 -54 -1 -20 -19 -20
-18 6 -63 21 -36 21 -39 5 -55 -9 -10 -20 -15 -25 -12 -10 6 -10 -36 0 -49 44
-56 36 -53 187 -66 139 -13 144 -14 164 -41 11 -15 27 -28 34 -28 8 0 16 -7
20 -15 3 -9 28 -27 55 -41 27 -14 54 -35 60 -49 11 -25 44 -39 54 -23 15 24
84 -16 84 -49 0 -19 -41 -16 -56 5 -12 15 -13 15 -14 0 0 -9 5 -18 11 -20 17
-6 -7 -48 -27 -48 -9 0 -21 -14 -27 -30 -10 -28 -14 -30 -47 -24 -19 4 -42 13
-51 20 -18 16 -45 18 -54 4 -11 -17 5 -48 27 -53 16 -5 19 -12 16 -34 -3 -15
-9 -37 -13 -47 -7 -16 -5 -18 13 -14 19 5 21 2 20 -42 -1 -34 5 -56 21 -79 12
-17 20 -39 17 -48 -16 -51 42 -54 61 -3 10 26 16 30 48 30 54 0 95 25 95 58 0
16 13 41 30 61 17 18 30 36 30 40 -1 25 -57 61 -97 61 -27 0 -34 5 -39 26 -10
38 17 61 51 46 14 -6 25 -18 25 -25 0 -12 63 -45 83 -43 13 2 38 -57 31 -76
-9 -28 13 -49 45 -41 14 3 29 11 33 16 4 7 19 4 42 -8 38 -21 48 -53 22 -74
-17 -14 -9 -51 10 -51 8 0 22 -9 31 -20 10 -11 23 -20 30 -20 7 0 13 -5 13
-10 0 -6 10 -15 23 -21 19 -9 22 -16 19 -42 -7 -42 -28 -63 -106 -101 -27 -13
-32 -12 -58 7 -15 11 -28 26 -28 32 0 6 -21 22 -47 35 -27 13 -53 30 -58 38
-14 18 -76 12 -85 -8 -4 -8 -12 -25 -18 -37 -20 -38 -14 -61 28 -103 42 -42
64 -50 74 -25 7 19 30 10 78 -29 23 -19 38 -40 38 -53 0 -23 -46 -73 -66 -73
-17 0 -36 26 -32 46 2 11 -7 20 -27 27 -16 5 -44 20 -62 33 -38 29 -53 30 -85
5 -28 -22 -87 -25 -95 -4 -3 7 -13 13 -23 13 -23 0 -42 24 -34 44 3 9 1 16 -5
16 -6 0 -16 10 -22 23 -6 14 -20 24 -36 25 -29 2 -63 28 -63 48 0 21 -14 24
-59 12 -40 -10 -44 -9 -75 21 -17 17 -35 31 -40 31 -4 0 -14 6 -21 14 -20 19
-96 19 -118 -2 -16 -14 -19 -14 -27 -2 -6 8 -10 21 -10 28 0 7 -12 17 -26 22
-22 9 -24 13 -14 25 7 9 10 18 7 21 -8 8 -47 -6 -47 -17 0 -5 -15 -9 -34 -9
-18 0 -39 -7 -46 -15 -17 -21 -60 -18 -90 5 -43 33 -100 22 -100 -20 0 -45
-64 -121 -88 -106 -16 9 -42 -29 -37 -53 6 -31 9 -34 42 -33 29 0 83 -26 83
-40 0 -5 -7 -11 -15 -14 -24 -10 -6 -24 30 -24 42 0 99 -44 92 -72 -4 -13 0
-18 14 -18 22 0 39 32 21 38 -19 6 -14 32 6 32 32 0 56 -35 28 -42 -13 -2 -12
-12 4 -58 22 -66 53 -94 93 -86 37 8 97 -35 97 -69 0 -13 7 -31 16 -40 15 -15
15 -19 -2 -50 -16 -30 -16 -36 -3 -52 8 -10 22 -32 31 -49 17 -31 17 -33 -3
-59 -19 -23 -20 -29 -9 -51 8 -13 17 -24 22 -24 4 0 8 -5 8 -10 0 -6 13 -24
29 -39 24 -24 36 -28 63 -24 18 2 59 4 90 3 45 0 62 4 78 20 14 14 33 20 63
20 55 -1 82 -20 73 -54 -3 -14 -7 -29 -8 -33 -1 -5 11 -10 28 -13 20 -4 30
-12 32 -28 2 -13 10 -22 21 -22 10 0 23 -11 29 -25 7 -14 19 -28 27 -31 8 -4
15 -18 15 -33 0 -35 13 -53 33 -45 13 4 17 1 17 -15 0 -14 5 -19 15 -15 12 5
12 9 -1 29 -10 15 -12 25 -5 30 6 3 11 13 11 22 0 8 9 26 20 40 24 30 26 53 5
53 -10 0 -15 10 -15 30 0 18 6 33 15 36 16 6 21 64 6 64 -5 0 -16 16 -25 35
-13 26 -23 35 -41 35 -24 0 -80 -42 -69 -52 6 -7 -17 -58 -27 -58 -15 0 -16
16 -4 65 11 42 11 55 -2 87 -20 50 -5 73 35 55 15 -6 33 -17 40 -24 22 -21 76
-25 274 -21 180 4 196 6 237 28 35 19 47 21 62 12 25 -16 27 -15 31 11 3 21 7
22 98 23 95 1 209 22 236 44 8 7 14 23 14 35 0 13 10 36 23 52 42 53 64 88 70
113 4 14 23 36 44 49 l37 24 14 -22 c17 -24 40 -28 48 -7 8 20 -14 56 -34 56
-10 1 -2 9 19 20 20 11 39 28 42 40 10 39 82 21 158 -42 8 -7 18 -21 22 -30 5
-13 18 -18 50 -18 23 0 60 -9 82 -20 22 -11 45 -20 52 -20 8 0 25 -7 38 -16
13 -8 34 -14 47 -12 21 3 23 8 21 53 -3 52 -20 121 -36 142 -5 7 -34 20 -64
30 -37 12 -61 26 -71 43 -9 14 -30 41 -48 60 -41 44 -51 81 -29 104 9 9 22 16
30 16 7 0 20 11 29 25 29 43 -8 95 -68 95 -37 0 -56 10 -56 29 0 10 -12 23
-27 30 -16 8 -36 17 -45 22 -10 5 -24 9 -32 9 -9 0 -32 18 -53 41 -44 48 -103
79 -149 79 -34 0 -74 31 -74 58 0 21 -27 43 -88 72 -64 30 -80 46 -91 87 -5
20 -24 38 -62 61 -50 30 -99 93 -99 128 0 6 -12 21 -26 33 -22 19 -25 29 -21
59 9 50 18 55 68 38 24 -9 61 -16 82 -16 20 0 37 -5 37 -11 0 -6 23 -33 52
-61 48 -46 52 -55 53 -97 0 -41 3 -46 25 -49 13 -2 33 -10 44 -18 11 -8 31
-14 43 -14 27 0 28 -7 8 -34 -20 -26 -19 -29 11 -65 22 -26 33 -31 70 -31 36
0 47 5 61 26 13 21 22 25 46 20 25 -5 28 -4 17 9 -11 13 -8 15 16 15 22 0 26
-3 14 -10 -12 -8 -11 -10 8 -10 12 0 22 -4 22 -10 0 -5 6 -10 14 -10 8 0 18
-9 21 -20 3 -11 12 -20 19 -20 7 0 17 -10 23 -23 10 -22 95 -57 139 -57 11 0
41 -13 67 -30 58 -36 81 -39 72 -8 -7 20 -5 21 46 15 30 -4 67 -7 82 -7 23 0
27 -3 22 -19 -3 -12 0 -21 10 -25 8 -3 15 -1 15 4 0 6 16 10 36 10 l35 0 -7
48 c-3 26 -11 53 -17 60 -13 17 -10 91 4 108 6 8 20 14 30 14 10 0 33 9 51 19
18 11 62 22 98 26 36 4 80 13 99 21 18 8 43 14 56 14 12 0 30 9 40 20 10 11
28 20 39 20 52 0 111 33 154 86 24 30 67 68 99 87 58 33 58 33 77 119 3 14 26
50 51 79 26 30 45 63 45 76 0 26 -23 78 -48 106 -15 17 -58 25 -47 8 3 -6 -22
-8 -65 -4 l-70 6 0 -32 c0 -30 -2 -31 -41 -31 -54 0 -130 20 -123 32 4 6 -5 8
-25 3 -28 -6 -33 -3 -52 29 -11 19 -29 38 -39 41 -10 3 -30 17 -44 30 l-27 25
18 35 c10 19 34 43 54 53 33 17 39 17 78 3 40 -15 44 -15 57 3 12 17 12 22 -1
36 -8 9 -15 22 -15 28 0 6 -20 20 -44 31 -36 15 -44 23 -39 39 7 27 -14 38
-36 18 -16 -15 -21 -14 -67 9 -50 26 -108 33 -119 15 -9 -15 -25 -2 -25 20 0
23 -33 35 -58 21 -33 -17 -60 -2 -78 44 -18 50 -118 138 -145 130 -10 -4 -39
17 -79 55 -34 33 -68 60 -74 60 -15 0 -86 38 -104 57 -10 10 -12 17 -4 22 7 4
5 14 -7 30 -12 15 -23 21 -31 16 -10 -6 -9 -11 4 -21 9 -6 13 -14 9 -17 -5 -3
-19 5 -32 19 -13 13 -19 24 -14 24 5 0 10 14 11 31 2 30 1 31 -27 26 -26 -5
-33 -1 -63 39 -28 38 -37 44 -61 39 -28 -5 -67 22 -67 47 0 7 -9 35 -19 63
-11 27 -23 63 -26 78 -3 17 -15 31 -30 37 -14 5 -26 15 -27 22 0 7 -2 18 -2
24 -1 12 -103 114 -115 114 -10 0 -71 32 -101 53 -34 24 -147 22 -220 -3z
m-680 -195 c0 -8 -4 -15 -10 -15 -5 0 -10 7 -10 15 0 8 5 15 10 15 6 0 10 -7
10 -15z m510 -465 c-4 -3 -10 -15 -14 -27 -6 -17 -3 -23 8 -23 9 0 16 -9 16
-20 0 -26 -40 -28 -40 -2 -1 10 -17 25 -42 37 -54 25 -58 42 -17 59 28 12 37
12 65 -3 17 -9 28 -18 24 -21z m-929 -1060 c5 0 9 -7 9 -16 0 -9 8 -23 18 -30
22 -17 -1 -18 -30 -1 -43 23 -60 68 -21 53 8 -3 19 -6 24 -6z m519 -1837 c-1
-27 -25 -53 -49 -53 -13 0 -21 7 -22 18 0 14 -2 14 -9 -3 -8 -18 -9 -17 -9 8
-1 16 3 26 8 23 5 -3 11 1 15 9 8 22 66 20 66 -2z"/>
<path d="M7235 10240 c3 -5 8 -10 11 -10 2 0 4 5 4 10 0 6 -5 10 -11 10 -5 0
-7 -4 -4 -10z"/>
<path d="M7295 10220 c-3 -5 3 -10 14 -10 12 0 21 5 21 10 0 6 -6 10 -14 10
-8 0 -18 -4 -21 -10z"/>
<path d="M6797 9964 c-19 -18 -25 -30 -19 -36 14 -14 61 21 62 45 0 24 -10 21
-43 -9z"/>
<path d="M6857 9953 c-4 -3 -7 -13 -7 -22 0 -12 2 -13 9 -3 4 7 14 12 21 10 7
-2 15 3 17 10 5 13 -28 17 -40 5z"/>
<path d="M6520 9491 c0 -14 18 -23 31 -15 8 4 7 9 -2 15 -18 11 -29 11 -29 0z"/>
<path d="M5920 9476 c0 -18 16 -29 30 -21 13 8 1 35 -16 35 -8 0 -14 -6 -14
-14z"/>
<path d="M7422 9398 c2 -6 10 -14 16 -16 7 -2 10 2 6 12 -7 18 -28 22 -22 4z"/>
<path d="M9520 8871 c0 -5 10 -11 23 -15 36 -9 43 -6 23 9 -22 17 -46 20 -46
6z"/>
<path d="M5347 8754 c-4 -4 -7 -16 -7 -26 0 -20 25 -25 36 -7 8 13 -19 43 -29
33z"/>
<path d="M6807 8753 c-12 -11 -8 -41 7 -46 15 -6 36 11 36 29 0 6 -7 15 -16
18 -19 7 -19 7 -27 -1z"/>
<path d="M6357 8664 c-10 -11 3 -24 24 -24 10 0 19 7 19 15 0 15 -31 21 -43 9z"/>
<path d="M6553 8663 c-38 -7 -26 -24 15 -21 20 2 36 8 35 13 -2 12 -19 14 -50
8z"/>
<path d="M6093 8559 c-21 -6 -33 -16 -33 -27 0 -21 19 -42 38 -42 8 0 25 -9
39 -20 26 -21 27 -21 186 1 48 6 87 15 87 18 0 9 -100 31 -143 31 -21 0 -60
11 -87 25 -27 14 -51 25 -52 24 -2 0 -18 -5 -35 -10z"/>
<path d="M6000 8541 c0 -6 5 -13 10 -16 6 -3 10 1 10 9 0 9 -4 16 -10 16 -5 0
-10 -4 -10 -9z"/>
<path d="M6436 8449 l-39 -29 47 0 c42 0 46 2 46 24 0 36 -10 37 -54 5z"/>
<path d="M5300 8435 c0 -18 5 -25 19 -25 28 0 36 19 15 35 -27 20 -34 18 -34
-10z"/>
<path d="M4615 8323 c-11 -3 -26 -10 -32 -15 -9 -7 -18 -6 -29 3 -13 10 -17
10 -25 -2 -13 -21 -11 -26 13 -32 12 -4 25 -1 29 5 4 7 11 -5 14 -26 5 -25 12
-36 21 -32 7 3 30 -10 50 -29 21 -20 47 -35 61 -35 22 0 23 -1 9 -16 -9 -8
-16 -20 -16 -25 0 -5 -5 -9 -11 -9 -6 0 -21 -13 -35 -30 -27 -32 -67 -55 -114
-65 -16 -4 -30 -12 -30 -19 0 -18 40 -52 75 -63 26 -8 31 -16 37 -56 6 -48
-12 -107 -33 -107 -6 0 -9 -10 -7 -22 4 -30 47 -37 65 -12 8 11 19 19 26 19
45 2 109 69 100 104 -3 13 -11 20 -19 17 -7 -3 -16 -1 -19 4 -7 11 22 40 41
40 8 0 14 4 14 9 0 5 14 24 32 42 26 27 32 43 33 77 0 38 -5 47 -43 80 -23 20
-42 40 -42 43 0 4 -13 21 -30 39 -16 18 -30 40 -30 49 0 9 -17 27 -38 41 -44
30 -42 29 -67 23z m155 -207 c-13 -13 -35 7 -25 24 5 8 11 8 21 -1 10 -8 12
-15 4 -23z"/>
<path d="M4530 8252 c0 -5 9 -17 20 -27 23 -21 27 -4 4 19 -17 18 -24 20 -24
8z"/>
<path d="M4245 8198 c-15 -22 -14 -23 6 -26 26 -4 44 11 36 32 -9 22 -23 20
-42 -6z"/>
<path d="M4060 8121 c-14 -10 -47 -26 -75 -35 -27 -9 -65 -22 -84 -29 -20 -7
-42 -24 -53 -43 -13 -22 -28 -33 -51 -37 -39 -6 -156 -73 -175 -99 -7 -10 -26
-25 -42 -33 -36 -18 -70 -73 -70 -112 0 -17 -9 -42 -20 -56 -11 -14 -20 -29
-20 -35 0 -5 -10 -22 -22 -37 -18 -23 -19 -29 -7 -36 40 -24 42 -29 41 -70 -1
-23 -8 -52 -15 -63 -24 -37 -28 -56 -12 -56 8 0 15 6 15 14 0 11 8 12 40 4 74
-19 116 -83 70 -108 -14 -8 -20 -21 -20 -45 0 -34 -1 -35 -38 -35 -43 0 -62
-14 -62 -47 0 -13 -4 -23 -9 -23 -6 0 -23 -12 -38 -26 -15 -14 -45 -35 -65
-45 -21 -11 -38 -24 -38 -29 0 -6 -11 -16 -25 -22 -29 -13 -43 -54 -26 -71 24
-24 3 -90 -62 -199 -26 -44 -74 -59 -112 -34 -21 14 -28 14 -57 2 -48 -20 -88
-55 -88 -76 0 -11 -14 -23 -37 -33 -55 -22 -93 -62 -93 -96 0 -20 -8 -34 -25
-45 -25 -17 -65 -14 -65 4 0 18 -69 78 -104 91 -38 14 -49 35 -62 116 -4 25
-15 49 -30 62 -17 15 -24 32 -24 58 0 21 -7 47 -15 57 -9 12 -15 42 -15 72 0
43 -4 56 -22 69 l-23 16 21 17 c28 23 54 67 54 92 0 15 -7 20 -27 21 -77 5
-131 18 -137 35 -8 22 -34 16 -38 -8 -2 -17 -10 -23 -28 -23 -14 0 -41 -10
-61 -22 -52 -33 -90 -30 -112 6 -15 25 -24 30 -67 33 -28 1 -55 2 -60 0 -20
-7 -9 -39 20 -60 24 -18 34 -21 51 -12 32 18 42 7 19 -20 -12 -14 -20 -35 -18
-50 3 -23 8 -25 56 -28 46 -3 54 -6 67 -32 23 -45 19 -55 -27 -66 -33 -7 -43
-14 -43 -29 0 -20 3 -20 60 -12 6 1 12 11 15 22 8 26 38 31 55 8 16 -21 11
-31 -22 -44 -14 -5 -27 -18 -30 -28 -3 -13 -11 -17 -24 -14 -10 3 -25 1 -32
-5 -6 -5 -29 -15 -49 -21 -21 -7 -38 -18 -38 -26 0 -19 -25 -36 -44 -29 -9 3
-16 15 -16 26 0 10 -4 17 -9 14 -5 -3 -8 9 -7 26 1 23 -4 33 -17 36 -24 5 -35
-28 -14 -43 26 -18 21 -22 -25 -19 -24 2 -79 3 -123 3 -54 0 -86 5 -99 14 -19
14 -19 15 -2 42 l18 28 -37 -7 c-44 -9 -82 -30 -110 -64 -13 -15 -29 -23 -40
-21 -25 5 -34 49 -11 49 9 0 16 4 16 8 0 13 -41 7 -50 -7 -4 -8 -13 -10 -19
-7 -8 5 -6 12 5 24 15 15 14 18 -10 38 -14 13 -26 30 -26 37 0 16 -21 27 -48
27 -27 0 -50 -50 -38 -82 13 -37 -1 -51 -66 -67 -65 -16 -94 -34 -104 -63 -7
-24 -28 -48 -41 -48 -5 0 -15 -16 -22 -36 -18 -50 -45 -74 -82 -74 -31 0 -31
1 -24 38 24 130 26 117 -23 154 -50 37 -65 59 -56 82 3 9 1 16 -5 16 -15 0
-95 -52 -100 -65 -2 -5 -17 -22 -33 -37 -40 -37 -37 -51 11 -43 29 5 46 2 67
-11 26 -17 84 -89 84 -104 0 -10 -47 -30 -71 -30 -10 0 -35 -17 -55 -37 -30
-31 -44 -37 -88 -41 -47 -4 -53 -2 -65 22 -8 14 -29 36 -48 48 -18 13 -33 28
-33 34 0 11 -42 44 -55 44 -16 0 -1 -52 25 -81 35 -39 38 -69 10 -76 -24 -6
-25 -24 -10 -174 25 -240 87 -575 161 -858 92 -356 172 -590 334 -981 41 -99
191 -402 210 -425 9 -11 14 -14 10 -7 -3 6 -2 12 3 12 6 0 13 -7 16 -16 8 -22
8 -26 -4 -19 -13 8 4 -31 49 -113 18 -35 44 -68 57 -74 15 -7 25 -22 29 -47 4
-27 14 -42 35 -55 35 -20 54 -51 47 -76 -2 -9 2 -28 10 -41 8 -13 12 -17 10
-9 -4 12 5 15 44 14 27 -1 65 3 84 9 31 9 38 8 60 -13 18 -17 23 -30 19 -47
-4 -13 -3 -39 0 -58 6 -32 10 -35 40 -35 29 0 36 5 44 29 6 16 20 34 31 41 12
6 21 18 21 26 0 9 11 29 25 46 21 25 26 27 31 13 4 -9 -1 -32 -10 -51 -23 -49
-21 -57 13 -49 16 3 47 2 67 -4 39 -11 55 -3 50 23 -2 6 -1 8 1 4 3 -5 11 -8
19 -8 21 0 17 -33 -6 -53 -34 -29 -20 -107 19 -107 10 0 25 7 32 16 8 9 30 27
51 40 21 14 38 33 40 46 2 17 11 24 31 26 15 2 27 -1 27 -7 0 -19 41 -53 56
-47 8 3 17 19 20 36 4 16 13 35 20 41 8 6 14 21 14 33 0 31 11 43 50 51 19 4
40 10 45 13 6 4 19 7 30 9 11 1 15 -1 8 -3 -8 -4 2 -21 27 -47 48 -49 52 -83
13 -117 l-27 -23 27 -21 c32 -26 33 -41 7 -81 -29 -44 -26 -81 8 -99 30 -16
81 -10 89 9 2 8 22 26 44 41 22 15 42 38 46 53 3 14 17 36 30 48 12 12 23 31
23 41 0 11 7 22 14 25 10 4 16 24 18 59 4 65 21 72 71 29 33 -30 77 -42 77
-21 0 13 47 13 55 1 3 -5 -6 -11 -21 -13 -21 -2 -29 -12 -45 -57 -17 -49 -17
-57 -4 -78 8 -12 15 -29 15 -37 0 -25 51 -78 71 -73 10 3 19 1 21 -5 5 -13 35
1 43 20 4 9 8 33 10 52 3 29 0 38 -18 45 -23 10 -33 36 -23 60 8 22 65 -1 72
-29 3 -12 15 -26 27 -31 15 -7 21 -17 19 -31 -2 -13 4 -24 14 -28 17 -6 17 4
-1 47 -6 14 -2 17 21 17 102 -1 143 -32 101 -78 l-21 -23 29 -24 c41 -34 97
-31 105 5 4 18 13 26 33 28 21 3 27 9 27 28 0 33 27 84 45 84 11 0 14 -13 12
-57 -3 -54 -4 -58 -27 -58 -18 0 -26 -6 -28 -22 -2 -13 -14 -31 -26 -41 -28
-21 -67 -107 -60 -127 3 -8 22 -18 42 -21 21 -4 55 -22 76 -40 22 -19 43 -34
47 -34 5 0 25 12 46 26 l38 26 5 -28 c8 -43 26 -39 43 10 15 43 15 45 -4 51
-10 4 -19 10 -19 15 0 11 56 30 88 30 19 0 23 4 19 20 -7 26 9 37 69 45 54 7
89 -10 78 -39 -3 -8 -1 -31 5 -52 8 -30 7 -43 -3 -59 -9 -14 -11 -27 -5 -36 7
-11 10 -9 15 8 5 19 13 23 48 23 22 0 50 7 60 15 11 8 28 15 37 15 10 0 33 18
50 40 39 49 97 70 117 43 16 -22 15 -48 -2 -76 -7 -12 -13 -35 -12 -52 1 -27
5 -30 36 -33 19 -1 40 1 45 5 12 9 65 117 65 131 0 5 20 13 44 16 35 6 54 2
85 -13 50 -26 76 -18 131 40 47 50 50 76 12 112 -39 38 -56 34 -86 -18 -15
-25 -32 -45 -39 -45 -6 0 -28 18 -48 40 -31 34 -43 40 -76 40 -25 0 -47 7 -60
20 -21 19 -21 19 -47 -1 l-25 -20 -14 23 c-8 13 -18 36 -21 51 -6 25 -9 27
-23 15 -14 -11 -16 -11 -11 3 5 13 -2 18 -35 22 -25 4 -49 14 -59 27 -9 11
-21 21 -25 20 -17 -1 -44 31 -49 59 -8 37 -42 48 -61 21 -18 -25 -49 -26 -63
-1 -16 32 -12 51 15 61 14 5 25 17 25 28 0 18 -37 42 -65 42 -8 0 -15 4 -15
10 0 5 -13 16 -30 25 -17 9 -33 27 -36 42 -8 31 11 113 29 128 7 6 20 22 29
37 10 14 38 37 64 50 26 12 52 30 57 40 6 9 16 14 24 11 7 -3 10 -9 7 -14 -3
-5 14 -9 37 -9 23 0 39 -3 36 -7 -11 -10 14 -33 37 -33 13 0 17 3 9 8 -19 12
-1 27 34 29 33 2 103 59 103 84 0 8 16 10 53 6 32 -3 73 0 108 10 50 13 58 19
75 56 18 38 19 46 6 85 -8 23 -31 59 -52 80 -20 20 -40 49 -44 65 -6 26 -66
96 -83 98 -15 1 -55 60 -57 84 0 14 -4 25 -8 25 -5 0 -8 4 -8 10 0 28 -80 91
-132 104 -23 5 -28 12 -28 37 0 41 -16 69 -40 69 -18 0 -19 7 -16 86 3 96 -3
105 -53 80 -39 -21 -41 -20 -41 7 0 13 -13 44 -29 69 -16 25 -32 54 -35 65 -4
11 -22 36 -42 55 -30 31 -35 42 -32 74 3 35 1 39 -26 44 -31 5 -41 18 -51 63
-7 32 -33 36 -58 7 -9 -11 -24 -20 -32 -20 -20 0 -19 29 2 52 15 17 15 21 -2
59 -10 22 -31 49 -47 60 -15 11 -27 23 -26 27 3 13 -22 97 -38 129 -9 18 -31
39 -49 47 l-33 16 2 82 c1 46 6 91 10 101 11 23 -11 49 -35 42 -16 -5 -19 -1
-19 23 0 16 -7 35 -16 42 -20 17 -44 76 -44 109 0 14 -9 54 -19 89 -21 68 -17
148 10 239 11 36 10 47 -5 81 -15 33 -16 46 -7 75 7 19 20 42 31 52 17 15 18
20 6 44 -17 33 -12 47 29 89 28 28 34 44 40 95 7 55 12 66 51 104 24 24 50 43
59 43 8 0 32 9 52 20 43 23 64 25 81 8 9 -9 12 -9 12 -1 0 7 10 12 23 11 42 0
67 -8 67 -22 0 -7 9 -21 20 -31 11 -10 20 -26 20 -35 0 -9 6 -25 14 -36 9 -11
12 -30 9 -46 -3 -17 -1 -28 6 -28 6 0 11 -4 11 -10 0 -21 53 -85 83 -99 52
-25 58 -41 28 -67 l-26 -23 20 -38 c14 -26 27 -38 42 -38 13 0 28 -6 35 -13
11 -11 9 -17 -9 -32 -26 -20 -31 -68 -9 -76 8 -3 16 -19 20 -35 3 -17 10 -28
16 -24 5 3 10 -1 10 -9 0 -9 4 -16 8 -16 4 0 16 -14 25 -30 16 -27 17 -31 3
-36 -9 -4 -16 -18 -16 -35 0 -35 55 -81 87 -73 16 4 22 0 27 -20 8 -31 -18
-86 -39 -86 -8 0 -15 -5 -15 -11 0 -7 7 -8 18 -4 9 4 32 9 50 12 25 4 32 11
32 28 0 13 11 30 25 39 31 21 54 8 85 -46 23 -40 27 -43 49 -29 17 11 22 34
24 107 1 33 8 56 20 68 10 10 16 25 13 32 -4 10 1 13 17 9 13 -3 32 3 47 15
20 16 23 22 14 37 -6 10 -26 19 -45 21 -47 5 -52 13 -36 63 28 84 29 106 4
114 -12 4 -28 6 -34 6 -7 -1 -13 4 -14 11 -2 20 2 72 6 94 2 10 4 25 4 32 1 7
9 15 19 19 28 10 63 55 60 77 -2 14 -13 23 -33 26 -26 5 -30 10 -28 34 1 16 9
36 17 45 12 13 13 20 4 29 -7 7 -17 12 -24 12 -6 0 -18 7 -25 16 -11 14 -11
18 4 29 26 19 22 67 -8 93 -23 21 -35 72 -17 72 5 0 9 6 10 13 1 6 4 27 8 44
5 28 2 37 -26 63 -33 31 -34 36 -15 97 7 21 5 22 -24 17 -17 -4 -51 0 -76 7
-37 11 -45 18 -45 37 0 13 4 21 9 18 10 -6 10 2 11 109 0 81 12 118 46 140 36
24 31 59 -12 89 l-37 25 33 30 c28 25 31 31 17 36 -8 4 -19 20 -22 36 -4 16
-19 42 -35 57 -38 39 -58 89 -52 135 l4 37 -53 0 c-36 -1 -62 -7 -79 -19z
m140 -146 c0 -8 -4 -15 -10 -15 -5 0 -10 7 -10 15 0 8 5 15 10 15 6 0 10 -7
10 -15z m-430 -603 c0 -10 -12 -35 -26 -56 -22 -32 -25 -46 -21 -80 6 -38 3
-44 -21 -58 -15 -9 -42 -18 -61 -20 -29 -2 -37 1 -50 23 -13 24 -13 29 8 58
13 17 21 38 18 45 -6 16 79 110 93 101 5 -3 18 -2 27 4 21 11 33 5 33 -17z
m-75 -292 c3 -5 1 -10 -4 -10 -6 0 -11 5 -11 10 0 6 2 10 4 10 3 0 8 -4 11
-10z m-525 -424 c0 -8 -5 -18 -11 -22 -14 -8 -33 11 -25 25 10 16 36 13 36 -3z
m-1740 -75 c0 -18 -29 -32 -54 -25 -26 6 -32 15 -19 27 10 10 73 8 73 -2z
m-866 -236 c-4 -8 -7 -15 -9 -15 -2 0 -5 7 -9 15 -3 9 0 15 9 15 9 0 12 -6 9
-15z m3816 -185 c0 -5 -4 -10 -10 -10 -5 0 -10 5 -10 10 0 6 5 10 10 10 6 0
10 -4 10 -10z m-785 -2221 c9 -14 3 -19 -34 -24 -21 -2 -31 1 -31 10 0 23 53
34 65 14z m-318 -78 c20 -27 15 -32 -19 -18 -40 16 -54 53 -16 42 12 -5 28
-15 35 -24z m-1320 3 c4 -10 -1 -22 -10 -29 -10 -7 -17 -26 -17 -46 0 -23 -6
-38 -20 -47 -19 -11 -20 -10 -20 33 0 31 7 55 22 75 25 34 36 37 45 14z m1752
-67 c12 -15 -15 -51 -46 -61 -10 -3 -25 -17 -34 -31 l-15 -26 -24 19 -24 20
46 46 c48 47 77 57 97 33z m-481 -70 c5 -24 -46 -46 -59 -26 -6 10 -3 19 13
32 24 20 42 18 46 -6z m79 -63 c-3 -3 -12 -4 -19 -1 -8 3 -5 6 6 6 11 1 17 -2
13 -5z m310 -26 c-3 -8 -6 -5 -6 6 -1 11 2 17 5 13 3 -3 4 -12 1 -19z m-557
-143 c0 -8 -4 -15 -10 -15 -5 0 -10 7 -10 15 0 8 5 15 10 15 6 0 10 -7 10 -15z
m1261 -273 c8 -39 -10 -43 -40 -10 -16 16 -18 25 -9 35 18 22 42 10 49 -25z
m-705 -29 c-10 -10 -19 5 -10 18 6 11 8 11 12 0 2 -7 1 -15 -2 -18z m496 -11
c3 -38 3 -38 -24 -28 -41 15 -38 66 3 66 12 0 18 -10 21 -38z"/>
<path d="M4450 7954 c0 -9 7 -14 17 -12 25 5 28 28 4 28 -12 0 -21 -6 -21 -16z"/>
<path d="M4370 7885 c0 -8 7 -15 15 -15 8 0 15 7 15 15 0 8 -7 15 -15 15 -8 0
-15 -7 -15 -15z"/>
<path d="M4827 7893 c-13 -12 -7 -51 8 -57 9 -3 21 4 32 20 14 22 14 27 2 35
-17 10 -33 11 -42 2z"/>
<path d="M4810 7765 c-7 -8 -18 -15 -25 -15 -16 0 -47 -93 -39 -114 14 -37 44
-10 44 40 0 13 4 24 10 24 8 0 40 61 40 76 0 10 -19 3 -30 -11z"/>
<path d="M4402 7739 c-31 -12 -27 -24 7 -27 34 -3 62 23 33 30 -10 3 -28 1
-40 -3z"/>
<path d="M7003 7583 c-19 -53 9 -71 48 -32 l21 21 -21 19 c-27 26 -37 24 -48
-8z"/>
<path d="M5990 7472 c0 -5 10 -21 23 -35 25 -30 63 -38 53 -11 -3 9 -6 18 -6
20 0 2 -7 4 -16 4 -10 0 -14 6 -10 15 4 11 -1 15 -19 15 -14 0 -25 -4 -25 -8z"/>
<path d="M2461 7426 c-8 -10 -9 -16 -1 -21 13 -8 30 3 30 21 0 18 -14 18 -29
0z"/>
<path d="M8820 7409 c0 -5 5 -7 10 -4 6 3 10 8 10 11 0 2 -4 4 -10 4 -5 0 -10
-5 -10 -11z"/>
<path d="M2341 7341 c-69 -8 -86 -29 -52 -65 14 -14 25 -36 26 -48 3 -24 11
-25 56 -7 20 8 28 20 33 47 8 50 8 82 -1 80 -5 -1 -32 -4 -62 -7z"/>
<path d="M1654 7309 c-10 -17 13 -36 27 -22 12 12 4 33 -11 33 -5 0 -12 -5
-16 -11z"/>
<path d="M1318 7283 c-51 -4 -59 -7 -64 -28 -3 -13 -12 -29 -20 -36 -8 -6 -14
-24 -14 -40 0 -25 -4 -29 -37 -34 -58 -10 -65 -14 -61 -32 6 -32 53 -28 83 6
22 24 32 29 59 24 22 -3 36 0 45 11 7 9 28 16 47 16 34 0 52 14 34 25 -5 3
-10 13 -10 21 0 12 7 14 30 9 27 -6 30 -4 30 17 0 30 -18 49 -44 46 -12 -1
-47 -3 -78 -5z"/>
<path d="M2160 7270 c0 -5 4 -10 9 -10 6 0 13 5 16 10 3 6 -1 10 -9 10 -9 0
-16 -4 -16 -10z"/>
<path d="M1117 7233 c-14 -13 -7 -33 11 -33 26 0 34 11 21 27 -13 14 -22 16
-32 6z"/>
<path d="M2421 7204 c-15 -34 -14 -40 9 -41 16 -1 20 4 20 27 0 38 -14 45 -29
14z"/>
<path d="M8465 7053 c-12 -72 -37 -137 -67 -175 -29 -37 -32 -38 -94 -38 -59
0 -64 -2 -70 -24 -13 -52 34 -80 67 -40 7 9 32 14 65 14 48 0 56 3 63 23 5 13
16 29 25 36 9 7 16 21 16 30 0 9 7 26 15 39 12 16 15 41 13 94 -3 80 -23 104
-33 41z"/>
<path d="M1585 7060 c-3 -5 -1 -10 4 -10 6 0 11 5 11 10 0 6 -2 10 -4 10 -3 0
-8 -4 -11 -10z"/>
<path d="M1497 7033 c-4 -3 -2 -12 4 -20 9 -10 15 -10 25 -2 8 6 14 15 14 20
0 10 -34 12 -43 2z"/>
<path d="M880 7004 c0 -8 5 -12 10 -9 6 3 10 10 10 16 0 5 -4 9 -10 9 -5 0
-10 -7 -10 -16z"/>
<path d="M623 6975 c-13 -9 -23 -22 -23 -30 0 -7 -14 -28 -31 -45 -17 -17 -29
-33 -26 -36 7 -7 47 18 47 29 0 18 27 32 68 35 46 3 99 30 85 43 -4 4 -28 10
-53 14 -33 4 -51 2 -67 -10z"/>
<path d="M9796 6853 c-9 -22 10 -41 25 -26 13 13 5 43 -10 43 -5 0 -12 -8 -15
-17z"/>
<path d="M1750 6800 c0 -5 9 -10 20 -10 11 0 20 5 20 10 0 6 -9 10 -20 10 -11
0 -20 -4 -20 -10z"/>
<path d="M1120 6775 c-14 -16 -5 -35 16 -35 15 0 20 35 5 44 -5 3 -14 -1 -21
-9z"/>
<path d="M8020 6746 c0 -12 56 -46 75 -46 11 0 -26 33 -52 47 -18 9 -23 9 -23
-1z"/>
<path d="M8235 6729 c-9 -14 3 -59 15 -59 5 0 12 11 16 24 6 26 -1 46 -16 46
-5 0 -12 -5 -15 -11z"/>
<path d="M7408 6643 c6 -2 18 -2 25 0 6 3 1 5 -13 5 -14 0 -19 -2 -12 -5z"/>
<path d="M7295 6630 c-11 -17 12 -43 39 -45 28 -1 31 6 16 36 -11 20 -45 26
-55 9z"/>
<path d="M6850 6621 c0 -17 47 -61 64 -61 27 0 15 31 -19 51 -35 20 -45 23
-45 10z"/>
<path d="M7435 6605 c-25 -21 -28 -27 -15 -35 8 -5 21 -8 28 -5 8 3 20 5 27 5
16 0 26 25 19 45 -8 21 -24 18 -59 -10z"/>
<path d="M7380 6579 c0 -5 5 -7 10 -4 6 3 10 8 10 11 0 2 -4 4 -10 4 -5 0 -10
-5 -10 -11z"/>
<path d="M9105 6530 c-4 -6 -3 -16 3 -22 6 -6 12 -6 17 2 4 6 3 16 -3 22 -6 6
-12 6 -17 -2z"/>
<path d="M9160 6488 c0 -20 38 -78 55 -85 22 -8 54 24 50 49 -5 24 -15 37 -15
19 0 -9 -11 -6 -36 8 -40 24 -54 26 -54 9z"/>
<path d="M8386 6435 c-8 -39 -2 -55 19 -55 18 0 29 35 21 66 -9 36 -33 29 -40
-11z"/>
<path d="M7240 6430 c0 -5 5 -10 11 -10 5 0 7 5 4 10 -3 6 -8 10 -11 10 -2 0
-4 -4 -4 -10z"/>
<path d="M8290 6418 c0 -13 50 -41 58 -33 5 5 -39 44 -50 45 -5 0 -8 -6 -8
-12z"/>
<path d="M7175 6410 c3 -5 8 -10 11 -10 2 0 4 5 4 10 0 6 -5 10 -11 10 -5 0
-7 -4 -4 -10z"/>
<path d="M3984 6395 c-8 -21 3 -48 19 -43 19 7 22 58 2 58 -8 0 -18 -7 -21
-15z"/>
<path d="M7238 6403 c6 -2 18 -2 25 0 6 3 1 5 -13 5 -14 0 -19 -2 -12 -5z"/>
<path d="M7391 6271 c-10 -7 -11 -13 -1 -31 l12 -22 24 23 c18 17 21 25 12 31
-17 10 -30 10 -47 -1z"/>
<path d="M7155 6163 c2 -10 4 -21 4 -25 2 -21 21 -5 21 17 0 15 -6 25 -14 25
-8 0 -13 -8 -11 -17z"/>
<path d="M4487 6053 c-4 -3 -7 -17 -7 -30 0 -16 6 -23 20 -23 18 0 40 26 40
49 0 12 -43 15 -53 4z"/>
<path d="M4512 5968 c-16 -16 -15 -33 3 -48 23 -19 67 3 63 32 -3 25 -47 35
-66 16z"/>
<path d="M4754 5895 c-4 -8 -13 -15 -21 -15 -8 0 -12 -4 -8 -9 3 -5 1 -12 -4
-16 -5 -3 -14 2 -19 11 -6 11 -23 18 -47 19 -39 1 -56 -15 -83 -77 -8 -19 -16
-26 -27 -22 -10 4 -15 0 -15 -15 0 -24 4 -25 31 -11 11 6 25 8 32 3 6 -4 19
-8 28 -8 23 -2 77 -46 85 -70 4 -11 14 -25 23 -32 10 -7 11 -12 4 -13 -6 0
-15 5 -18 10 -4 7 -12 7 -25 0 -14 -7 -20 -6 -25 8 -6 16 -7 16 -16 0 -6 -10
-19 -18 -30 -18 -24 0 -35 -25 -20 -44 12 -14 46 -11 68 6 17 14 83 -1 83 -19
0 -8 14 -20 30 -26 17 -6 30 -18 30 -25 0 -19 130 -8 182 16 51 23 77 75 57
112 -8 14 -31 34 -52 45 -21 11 -40 29 -43 40 -3 11 -24 31 -47 44 -46 26 -87
61 -87 74 0 10 -41 46 -53 47 -4 0 -10 -7 -13 -15z m86 -75 c0 -5 -4 -10 -10
-10 -5 0 -10 5 -10 10 0 6 5 10 10 10 6 0 10 -4 10 -10z"/>
<path d="M5057 5743 c-13 -12 -7 -23 13 -23 11 0 20 7 20 15 0 15 -21 21 -33
8z"/>
<path d="M4530 5730 c0 -5 4 -10 9 -10 6 0 13 5 16 10 3 6 -1 10 -9 10 -9 0
-16 -4 -16 -10z"/>
<path d="M5645 5580 c-3 -5 -1 -10 4 -10 6 0 11 5 11 10 0 6 -2 10 -4 10 -3 0
-8 -4 -11 -10z"/>
<path d="M5046 5549 c-9 -47 -8 -53 9 -39 13 11 20 11 40 0 38 -21 31 -36 -15
-32 -24 3 -40 0 -40 -7 0 -6 -7 -8 -15 -5 -19 8 -19 4 1 -34 13 -27 22 -32 52
-33 54 -2 74 1 102 16 14 7 32 16 42 19 16 5 16 9 9 109 -1 12 -5 15 -13 11
-15 -10 -79 -6 -93 5 -5 5 -24 12 -41 15 -29 7 -32 5 -38 -25z"/>
<path d="M7550 5370 c0 -19 3 -21 12 -12 9 9 9 15 0 24 -9 9 -12 7 -12 -12z"/>
<path d="M5310 5360 c0 -5 5 -10 11 -10 5 0 7 5 4 10 -3 6 -8 10 -11 10 -2 0
-4 -4 -4 -10z"/>
<path d="M5370 5291 c0 -11 5 -23 10 -26 6 -4 10 5 10 19 0 14 -4 26 -10 26
-5 0 -10 -9 -10 -19z"/>
<path d="M5218 5243 c-10 -46 55 -120 99 -111 28 5 45 48 29 73 -31 47 -121
73 -128 38z"/>
<path d="M10948 5244 c-12 -11 5 -44 23 -44 21 0 25 20 7 38 -13 13 -22 15
-30 6z"/>
<path d="M10523 5043 c-7 -2 -13 -15 -13 -28 0 -18 7 -24 30 -27 44 -7 62 18
31 43 -24 20 -28 21 -48 12z"/>
<path d="M5505 4987 c-40 -15 -38 -13 -30 -36 9 -28 34 -26 69 5 23 21 26 28
15 35 -16 10 -15 10 -54 -4z"/>
<path d="M5605 4929 c-4 -11 -4 -23 -2 -26 9 -8 27 7 27 22 0 23 -18 27 -25 4z"/>
<path d="M10644 4904 c2 -10 8 -20 15 -22 8 -3 12 3 9 14 -4 23 -27 31 -24 8z"/>
<path d="M10680 4870 c0 -5 5 -10 11 -10 5 0 7 5 4 10 -3 6 -8 10 -11 10 -2 0
-4 -4 -4 -10z"/>
<path d="M5643 4794 c-3 -10 4 -26 20 -41 28 -29 57 -25 57 6 0 13 -12 27 -30
36 -36 19 -39 19 -47 -1z"/>
<path d="M7705 4561 c-3 -6 -4 -15 -1 -20 8 -13 48 -1 43 13 -5 15 -34 20 -42
7z"/>
<path d="M12624 4545 c-8 -34 1 -55 25 -55 13 0 20 9 23 28 6 39 0 52 -23 52
-12 0 -21 -9 -25 -25z"/>
<path d="M8090 4525 c-6 -8 -10 -26 -8 -42 4 -38 47 -44 77 -12 27 29 23 39
-21 55 -30 10 -39 10 -48 -1z"/>
<path d="M7680 4496 c0 -2 7 -9 15 -16 9 -7 15 -8 15 -2 0 5 -7 12 -15 16 -8
3 -15 4 -15 2z"/>
<path d="M7951 4311 c-15 -4 -30 -19 -38 -39 -12 -28 -11 -33 8 -51 17 -16 19
-23 10 -40 -7 -12 -9 -21 -6 -21 2 0 -3 -9 -12 -19 -9 -11 -18 -37 -20 -58 -3
-28 -15 -49 -43 -78 -21 -22 -56 -74 -76 -115 -21 -41 -50 -95 -66 -119 -15
-25 -31 -66 -34 -93 -5 -38 -9 -46 -19 -38 -10 8 -15 6 -18 -7 -9 -30 -6 -82
4 -88 5 -4 9 -24 9 -47 0 -22 7 -52 15 -66 8 -15 19 -45 25 -68 9 -38 13 -41
66 -58 61 -19 171 -23 187 -7 7 7 7 18 -1 36 -11 25 -7 55 8 55 4 0 10 -8 14
-17 3 -10 11 -27 17 -38 7 -11 15 -26 19 -34 8 -18 98 -50 123 -43 10 3 17 14
17 28 0 29 24 32 58 8 19 -13 21 -19 11 -30 -8 -10 -9 -18 -2 -25 15 -15 138
-30 220 -27 40 1 75 -1 79 -5 10 -10 88 -9 117 2 14 6 28 20 32 31 8 24 76 59
116 60 18 0 37 14 64 44 21 25 42 43 47 40 18 -11 6 24 -14 43 -13 12 -31 33
-41 47 -13 19 -27 26 -51 26 -42 0 -50 -18 -31 -64 8 -20 15 -46 15 -59 0 -21
-6 -25 -41 -31 -23 -4 -48 -14 -57 -23 -16 -16 -17 -15 -20 6 -2 13 4 28 14
35 21 16 26 145 6 169 -7 8 -10 26 -7 39 4 16 -2 31 -20 51 -21 22 -25 34 -20
58 6 25 2 34 -26 60 -18 17 -35 26 -37 20 -6 -18 -36 -13 -60 9 -29 27 -29 66
-1 73 14 4 20 11 16 21 -4 9 2 24 12 33 10 10 21 29 24 43 5 18 21 32 57 48
69 31 69 57 0 66 -49 7 -50 8 -50 40 0 19 7 39 15 46 8 7 15 21 15 32 0 14 -5
18 -15 14 -8 -3 -15 -1 -15 4 0 6 -7 10 -16 10 -11 0 -13 6 -9 19 5 16 2 18
-17 14 -13 -3 -34 -16 -48 -28 -36 -32 -183 -74 -166 -47 2 4 -1 14 -7 23 -15
19 -83 34 -92 19 -3 -5 2 -10 11 -10 10 0 15 -2 12 -5 -3 -4 -18 -3 -32 1 -25
6 -25 7 -9 20 16 12 16 13 2 14 -9 0 -22 -6 -28 -14 -10 -12 -8 -16 11 -22 18
-7 10 -10 -37 -15 -33 -3 -62 -4 -64 -3 -2 2 2 17 9 34 11 26 26 35 53 31 17
-3 5 17 -14 22 -14 4 -18 10 -13 19 6 10 4 10 -9 -1 -11 -9 -17 -10 -17 -2 0
6 -9 11 -20 11 -11 0 -20 6 -20 14 0 7 -10 16 -22 20 -26 6 -24 7 -57 -3z
m577 -952 c27 -47 18 -69 -29 -69 -28 0 -29 2 -29 48 0 76 22 84 58 21z"/>
<path d="M12125 4240 c-3 -5 -14 -10 -25 -10 -24 0 -44 -54 -29 -82 13 -24 41
-20 54 9 5 12 17 24 27 26 10 3 21 12 24 21 11 30 -35 62 -51 36z"/>
<path d="M10741 4186 c-13 -7 -20 -15 -15 -18 14 -8 75 12 69 22 -8 13 -25 12
-54 -4z"/>
<path d="M12223 4168 c-6 -7 -13 -43 -16 -80 -3 -36 -13 -83 -21 -103 -13 -30
-19 -35 -36 -30 -14 4 -30 -2 -51 -19 -17 -15 -34 -24 -39 -21 -5 3 -11 -13
-15 -35 -5 -27 -19 -52 -47 -80 -38 -38 -44 -40 -100 -40 -56 0 -63 2 -98 38
-27 27 -43 56 -55 97 -10 33 -24 68 -33 78 -32 36 -88 6 -63 -34 6 -11 20 -47
30 -79 33 -106 118 -180 206 -180 73 0 77 -6 49 -67 -26 -59 -49 -70 -112 -58
-20 4 -59 9 -85 11 -43 3 -49 1 -57 -21 -5 -13 -19 -29 -32 -36 -13 -7 -28
-19 -35 -28 -15 -19 -17 -51 -3 -51 6 0 10 -7 10 -15 0 -11 -11 -15 -40 -15
-28 0 -40 4 -40 14 0 8 6 17 13 20 10 5 10 7 0 12 -7 3 -13 12 -13 20 0 16
-41 28 -67 20 -18 -6 -63 -92 -63 -121 0 -8 -6 -15 -12 -15 -9 0 -8 -4 2 -10
10 -6 11 -10 3 -10 -7 0 -13 -7 -13 -15 0 -17 2 -16 -97 -20 -65 -2 -73 -1
-73 15 0 12 -17 27 -45 41 -41 21 -49 22 -81 10 -20 -7 -54 -31 -75 -52 -22
-22 -53 -42 -68 -45 -23 -5 -30 -13 -35 -40 -3 -19 -9 -50 -12 -69 -3 -19 -10
-37 -14 -40 -11 -7 -51 35 -62 66 -9 26 -15 29 -52 29 -42 0 -76 -21 -76 -48
0 -6 -9 -13 -19 -17 -11 -3 -22 -19 -26 -36 -4 -16 -11 -27 -16 -23 -5 3 -9 1
-9 -5 0 -19 -51 -61 -74 -61 -12 0 -26 -3 -30 -7 -13 -13 -77 -31 -102 -28
-13 1 -24 -3 -23 -9 6 -50 -7 -57 -51 -24 -42 30 -76 17 -107 -42 -13 -25 -40
-63 -61 -86 -36 -40 -37 -41 -69 -28 -24 11 -39 11 -60 3 -21 -8 -38 -7 -67 2
-37 13 -39 12 -65 -18 -43 -51 -118 -55 -140 -7 -8 17 -19 24 -40 24 -49 0
-61 -9 -61 -45 0 -19 -4 -36 -9 -39 -5 -3 -7 -25 -4 -47 5 -32 2 -44 -11 -51
-25 -14 -21 -42 6 -35 24 7 65 -12 92 -42 14 -15 30 -21 53 -19 18 1 33 6 33
10 0 17 46 7 58 -13 11 -18 9 -23 -18 -49 -17 -16 -30 -33 -28 -37 24 -50 33
-63 45 -63 15 0 -14 -57 -47 -90 -11 -11 -21 -27 -21 -35 -1 -8 -2 -21 -3 -27
0 -7 -19 -16 -40 -19 -27 -4 -48 -16 -63 -35 -13 -16 -28 -34 -33 -41 -5 -6
-18 -18 -30 -26 -27 -19 -16 -47 19 -47 15 0 32 -5 39 -12 6 -6 15 -8 19 -4 4
4 0 12 -10 17 -25 15 -21 38 10 45 17 5 30 2 37 -7 6 -8 28 -23 49 -34 29 -15
41 -17 55 -9 23 15 27 50 8 78 -23 37 -10 63 38 75 50 12 65 27 103 101 33 63
32 86 -3 94 -41 11 -31 33 34 72 1 1 4 16 7 34 3 26 0 33 -16 37 -34 9 -20 46
20 54 18 4 36 11 40 16 3 4 16 16 28 27 19 15 25 17 38 6 13 -10 19 -10 33 4
10 9 29 16 41 16 14 0 25 7 28 20 7 28 44 48 102 56 49 6 51 6 51 -18 0 -13
16 -43 35 -65 29 -35 43 -42 97 -53 37 -7 74 -22 90 -36 16 -13 45 -26 66 -29
41 -7 55 -13 122 -51 25 -14 70 -30 100 -35 42 -8 61 -18 78 -40 18 -22 32
-29 57 -29 19 0 37 5 40 11 5 6 11 4 19 -6 15 -21 84 -25 96 -5 16 26 -23 50
-77 48 -74 -2 -110 10 -135 45 -13 18 -36 44 -52 59 -26 23 -29 34 -27 72 1
26 -5 58 -14 76 -22 43 -12 53 44 45 43 -6 50 -4 79 23 28 27 30 32 22 63 -9
30 -20 43 -43 52 -5 1 -5 15 -2 29 5 19 17 30 41 38 19 6 34 17 34 24 0 7 11
25 25 40 30 33 32 65 4 100 -24 31 -22 59 6 64 11 3 17 1 13 -3 -3 -4 5 -20
20 -36 30 -34 68 -36 86 -5 6 11 19 28 29 38 9 10 17 21 17 26 0 4 12 12 26
19 36 17 114 1 181 -37 43 -24 64 -30 115 -30 67 0 77 -4 94 -35 6 -11 25 -23
43 -26 17 -4 41 -15 51 -24 11 -10 29 -23 39 -29 107 -61 131 -72 141 -66 8 5
10 30 6 80 -3 45 -1 79 5 86 15 19 21 84 8 100 -6 7 -8 22 -4 32 6 22 58 48
74 38 5 -3 11 -2 13 3 1 5 10 10 18 12 18 3 86 -26 95 -40 3 -6 12 -8 21 -4
12 5 13 1 3 -21 -16 -34 -55 -35 -91 -1 -32 29 -34 30 -42 10 -9 -23 4 -45 27
-45 l21 0 -22 -20 c-12 -11 -26 -20 -32 -20 -15 0 -12 -16 5 -30 10 -8 31 -10
64 -5 36 5 57 2 81 -10 54 -28 78 -1 44 50 -11 17 -13 29 -6 42 7 12 6 26 -6
48 -15 27 -19 126 -6 147 7 12 34 -3 34 -18 0 -22 90 -75 115 -68 11 4 22 11
23 15 6 16 38 10 56 -10 22 -24 105 -38 117 -19 12 19 11 28 -3 25 -7 -1 -13
8 -14 20 -2 33 -30 86 -58 111 -14 12 -26 29 -26 37 0 17 21 20 36 5 6 -6 22
-6 43 0 44 12 102 -1 130 -29 22 -22 23 -22 43 -4 26 24 57 84 55 108 -1 11 4
20 11 20 14 0 60 65 97 135 17 33 21 50 14 63 -7 12 -6 17 4 17 8 0 22 9 32
20 18 20 18 21 -5 37 -13 9 -33 26 -43 36 -19 19 -21 19 -47 3 -40 -23 -53
-20 -96 19 -21 19 -48 35 -61 35 -23 0 -43 -26 -36 -47 9 -26 -28 -61 -78 -73
-28 -7 -53 -19 -56 -26 -8 -23 -25 -16 -70 26 -44 42 -65 44 -91 8 -9 -13 -26
-18 -58 -18 -28 0 -43 4 -39 10 4 6 -8 10 -30 10 -33 0 -35 1 -21 16 9 8 16
21 16 27 0 7 -5 6 -11 -3 -8 -12 -9 -10 -5 10 22 89 37 188 34 228 -2 39 -7
48 -24 50 -11 2 -25 -3 -31 -10z m-123 -543 c0 -17 -36 -38 -50 -30 -18 11
-11 35 13 44 26 10 37 6 37 -14z m-928 -333 c-5 -1 -21 4 -36 12 -24 12 -25
15 -9 18 18 5 62 -24 45 -30z m307 -36 c9 -11 8 -15 -5 -20 -23 -9 -24 -8 -24
14 0 23 13 26 29 6z m-870 -399 c8 -11 5 -16 -13 -25 -28 -13 -66 -5 -66 13 0
12 17 19 56 24 6 0 17 -5 23 -12z m272 1 c1 -7 1 -17 0 -21 -1 -4 5 -15 14
-23 19 -20 19 -44 0 -44 -8 0 -15 8 -15 18 0 18 -33 52 -50 52 -6 0 -10 7 -10
15 0 19 59 21 61 3z"/>
<path d="M11833 4143 c-7 -2 -13 -11 -13 -18 0 -7 -7 -15 -15 -19 -18 -7 -20
-40 -2 -53 6 -5 29 -10 49 -12 29 -1 38 3 43 20 4 11 2 26 -4 32 -6 6 -11 19
-11 28 0 13 -23 33 -33 28 -1 0 -8 -3 -14 -6z"/>
<path d="M7304 4014 c3 -9 6 -20 6 -26 0 -5 10 -8 23 -6 40 6 22 45 -22 47 -8
1 -11 -5 -7 -15z"/>
<path d="M10410 4000 c0 -5 5 -10 10 -10 6 0 10 5 10 10 0 6 -4 10 -10 10 -5
0 -10 -4 -10 -10z"/>
<path d="M12580 3971 c0 -5 -9 -11 -20 -14 -23 -6 -27 -37 -6 -37 15 0 66 42
66 54 0 3 -9 6 -20 6 -11 0 -20 -4 -20 -9z"/>
<path d="M12276 3881 c-4 -5 -2 -12 3 -15 5 -4 12 -2 15 3 4 5 2 12 -3 15 -5
4 -12 2 -15 -3z"/>
<path d="M10825 3834 c-34 -8 -67 -23 -77 -34 -10 -12 -19 -16 -23 -10 -8 14
-42 13 -51 -1 -12 -21 -4 -144 16 -225 11 -43 20 -100 20 -126 0 -66 14 -98
44 -98 31 0 36 15 36 106 0 79 3 83 48 60 38 -19 312 -28 371 -13 51 14 72 38
55 65 -11 16 -95 22 -313 22 -33 0 -33 0 -17 22 46 64 58 101 54 159 -2 31
-10 64 -17 73 -16 19 -63 19 -146 0z m78 -96 c-8 -45 -37 -83 -73 -98 -17 -7
-32 -11 -34 -9 -1 2 0 29 3 59 6 53 7 55 46 66 62 19 65 18 58 -18z"/>
<path d="M10412 3623 c-45 -25 -100 -80 -134 -132 -48 -76 -35 -164 35 -233
10 -11 15 -23 12 -28 -8 -13 34 -23 48 -12 7 5 29 12 49 16 20 4 61 25 90 46
29 22 62 40 75 40 46 0 62 67 19 83 -17 7 -111 -26 -135 -46 -33 -28 -44 -31
-32 -9 6 12 38 41 70 67 71 54 97 88 106 138 5 27 3 44 -9 62 -15 23 -23 25
-89 25 -50 0 -82 -5 -105 -17z m138 -62 c0 -16 -51 -71 -80 -86 -15 -8 -49
-37 -75 -64 -27 -28 -52 -48 -57 -45 -13 8 -9 62 6 93 8 15 35 46 60 69 41 38
51 42 96 42 27 0 50 -4 50 -9z"/>
<path d="M10040 3529 c-8 -14 -10 -42 -6 -79 l7 -57 -56 -17 c-56 -18 -88 -47
-78 -71 8 -23 31 -25 90 -10 30 8 60 12 65 9 11 -7 6 -210 -5 -220 -3 -4 -2
-15 3 -25 6 -9 7 -24 4 -32 -3 -8 1 -21 10 -29 8 -8 16 -28 18 -44 2 -18 10
-30 21 -32 15 -3 18 2 16 26 -2 16 2 36 9 45 7 9 12 23 10 33 -2 11 7 21 27
28 34 12 38 46 5 46 -28 0 -40 51 -40 175 l0 112 37 32 c20 17 40 31 45 31 4
0 8 11 8 24 0 36 -35 44 -72 16 -34 -25 -45 -19 -50 25 -2 24 -8 31 -30 33
-19 2 -30 -3 -38 -19z"/>
<path d="M1555 3490 c5 -8 24 -37 42 -64 31 -46 37 -50 78 -51 l43 -2 -3 38
c-5 53 -19 74 -52 77 -15 2 -37 4 -48 5 -12 1 -19 -3 -17 -11 1 -8 -7 -7 -25
5 -21 14 -25 15 -18 3z"/>
<path d="M9615 3480 c3 -5 15 -10 26 -10 11 0 17 5 14 10 -3 6 -15 10 -26 10
-11 0 -17 -4 -14 -10z"/>
<path d="M4205 3430 c-3 -5 1 -10 10 -10 9 0 13 5 10 10 -3 6 -8 10 -10 10 -2
0 -7 -4 -10 -10z"/>
<path d="M5286 3423 c-7 -7 -41 -10 -141 -13 -11 0 -50 3 -87 6 -58 5 -72 3
-102 -15 -28 -17 -39 -20 -55 -12 -32 17 -62 13 -97 -14 -18 -14 -42 -25 -53
-25 -36 0 -43 -32 -15 -73 14 -21 29 -37 34 -37 5 0 25 -13 43 -30 19 -16 39
-30 45 -30 18 0 25 -20 12 -35 -8 -10 -8 -24 -1 -49 5 -20 7 -36 3 -36 -3 0 5
-11 18 -25 27 -29 65 -33 79 -7 5 10 21 24 35 31 14 8 28 22 31 33 4 10 14 25
23 34 8 9 16 30 16 47 1 24 6 33 21 35 11 2 29 15 41 28 l21 25 39 -25 c63
-41 64 -43 64 -104 1 -46 5 -62 25 -84 25 -29 49 -36 60 -18 4 6 10 8 14 5 5
-2 17 5 27 16 16 18 17 22 2 47 -9 15 -19 41 -22 59 -9 38 11 54 91 73 32 7
50 16 47 22 -4 6 3 19 16 28 17 13 21 23 16 43 -5 22 -15 27 -83 43 -43 10
-92 28 -109 41 -33 24 -46 28 -58 16z m24 -195 l24 -31 -24 6 c-14 4 -30 7
-36 7 -15 0 -25 26 -18 44 7 19 24 11 54 -26z"/>
<path d="M1797 3390 c-16 -17 -35 -30 -43 -30 -9 0 -13 -9 -11 -30 4 -30 17
-55 17 -31 0 8 6 11 16 7 26 -10 94 12 94 31 0 13 -37 84 -43 83 -1 -1 -15
-14 -30 -30z"/>
<path d="M2190 3378 c0 -30 4 -38 18 -38 18 0 42 37 42 64 0 7 -12 12 -30 12
-28 0 -30 -2 -30 -38z"/>
<path d="M11220 3390 c0 -19 31 -23 48 -6 15 15 14 16 -16 16 -18 0 -32 -5
-32 -10z"/>
<path d="M4670 3350 l-35 -7 43 -2 c23 0 42 4 42 9 0 6 -3 9 -7 9 -5 -1 -24
-5 -43 -9z"/>
<path d="M4488 3343 c-11 -3 -18 -14 -18 -29 0 -21 5 -24 34 -24 37 0 49 15
34 43 -9 17 -17 19 -50 10z"/>
<path d="M12643 3337 c-3 -5 -1 -13 5 -19 7 -7 13 -4 21 9 8 15 7 20 -5 20 -8
0 -17 -4 -21 -10z"/>
<path d="M9323 3303 c-20 -7 -16 -53 5 -59 9 -3 25 -10 34 -15 28 -14 46 -11
58 11 22 41 -7 71 -65 69 -11 0 -26 -3 -32 -6z"/>
<path d="M9700 3278 c-13 -13 -29 -23 -35 -24 -5 0 -15 -2 -21 -2 -20 -3 -32
-55 -38 -163 -7 -132 3 -169 45 -169 32 0 34 5 43 105 7 75 25 156 40 178 7 8
25 19 41 23 l28 7 -6 -75 c-8 -87 6 -118 52 -118 44 0 57 23 38 63 -9 17 -18
61 -21 97 -6 80 -25 100 -95 100 -35 0 -53 -6 -71 -22z"/>
<path d="M2700 3266 c0 -7 7 -13 15 -13 8 0 15 4 15 8 0 4 -7 9 -15 13 -9 3
-15 0 -15 -8z"/>
<path d="M2108 3233 c7 -3 16 -2 19 1 4 3 -2 6 -13 5 -11 0 -14 -3 -6 -6z"/>
<path d="M1815 3200 c-3 -5 1 -10 10 -10 9 0 13 5 10 10 -3 6 -8 10 -10 10 -2
0 -7 -4 -10 -10z"/>
<path d="M3052 3141 c-8 -5 -12 -24 -11 -49 2 -31 -2 -45 -16 -56 -17 -12 -17
-14 -2 -37 10 -13 17 -19 18 -14 0 6 4 0 10 -13 l9 -23 45 32 c25 18 48 43 51
55 8 30 -21 81 -56 99 -34 17 -31 17 -48 6z"/>
<path d="M9131 3104 c-16 -21 -21 -41 -21 -93 -1 -127 -9 -220 -24 -255 -17
-40 -35 -47 -43 -16 -3 11 -9 20 -14 20 -13 0 -61 87 -79 144 -19 58 -40 76
-64 57 -9 -8 -16 -24 -16 -38 0 -48 -58 -293 -70 -293 -4 0 -28 22 -53 49 -48
51 -86 117 -96 165 -9 41 -38 57 -57 32 -20 -28 -18 -51 12 -115 24 -49 31
-77 34 -131 0 -13 1 -13 10 0 13 21 22 7 27 -47 8 -68 17 -76 79 -70 36 4 51
2 51 -6 -1 -38 5 -58 23 -75 15 -14 22 -37 27 -88 3 -38 10 -77 15 -87 7 -14
-2 -28 -46 -69 -41 -38 -56 -59 -56 -78 0 -39 29 -60 81 -60 25 0 54 -7 66
-15 20 -14 22 -21 16 -80 l-6 -65 31 0 c41 0 63 23 56 59 -5 24 1 35 42 74 26
26 52 47 56 47 4 0 8 -13 8 -30 0 -38 28 -66 79 -80 35 -9 40 -15 43 -42 2
-17 9 -34 17 -36 8 -3 11 0 8 5 -3 5 -1 26 5 46 10 34 14 37 49 37 21 0 40 -4
43 -9 3 -5 17 -11 31 -13 20 -4 33 3 63 37 20 24 46 58 57 76 11 19 35 43 52
54 18 11 32 24 33 29 0 11 48 56 59 56 5 0 16 21 26 48 10 26 30 61 45 77 15
17 25 37 22 45 -9 28 -41 50 -72 50 -38 0 -70 16 -70 35 0 8 -9 19 -21 25 -17
9 -23 7 -39 -13 -28 -36 -84 -48 -187 -41 -74 6 -91 4 -95 -8 -4 -8 -31 -31
-61 -51 -30 -20 -62 -49 -72 -64 -41 -65 -66 -83 -115 -83 -40 0 -49 4 -69 30
l-22 31 20 43 c12 23 21 52 21 63 0 26 -67 108 -109 134 -30 18 -31 19 -12 38
17 17 61 142 61 173 0 31 14 26 30 -11 25 -54 67 -81 127 -81 46 0 50 2 75 41
36 56 52 155 43 275 -7 83 -5 97 10 108 10 7 16 22 13 37 -5 36 -49 38 -77 3z
m334 -829 c2 -38 -1 -54 -14 -67 -10 -9 -21 -35 -25 -57 -5 -31 -11 -41 -25
-41 -24 0 -37 50 -23 88 6 15 13 43 16 62 6 33 41 73 59 67 5 -1 10 -25 12
-52z m-102 -189 c6 -16 -2 -28 -14 -20 -12 7 -11 34 0 34 5 0 11 -6 14 -14z
m97 -6 c0 -5 -4 -10 -10 -10 -5 0 -10 5 -10 10 0 6 5 10 10 10 6 0 10 -4 10
-10z"/>
<path d="M2565 3100 c-10 -17 22 -60 41 -53 24 9 14 57 -13 61 -11 2 -24 -2
-28 -8z"/>
<path d="M5772 3070 c-35 -34 -65 -38 -117 -13 -42 20 -49 15 -41 -32 5 -26
12 -35 27 -35 11 0 18 -4 15 -8 -3 -5 4 -15 15 -22 24 -18 25 -48 2 -46 -10 0
-21 5 -25 10 -10 14 -58 -10 -58 -29 0 -9 -4 -13 -10 -10 -6 4 -10 -6 -10 -22
0 -22 2 -25 10 -13 5 8 10 10 10 4 0 -7 11 -9 25 -6 29 5 32 -4 8 -27 -18 -16
-26 -71 -10 -71 16 0 37 29 37 52 0 20 5 23 43 23 84 0 135 67 87 115 -18 18
-19 24 -8 71 9 38 18 53 36 60 13 5 20 13 17 19 -10 16 -22 12 -53 -20z"/>
<path d="M5140 3065 c0 -17 5 -25 13 -22 6 2 12 12 12 22 0 10 -6 20 -12 23
-8 2 -13 -6 -13 -23z"/>
<path d="M9399 3074 c-24 -29 -24 -152 -1 -206 25 -56 53 -76 76 -52 20 19 20
25 1 50 -10 13 -14 46 -15 110 0 88 -8 114 -36 114 -6 0 -18 -7 -25 -16z"/>
<path d="M10246 3053 c4 -16 9 -32 11 -36 8 -14 33 15 33 39 0 19 -5 24 -25
24 -23 0 -25 -3 -19 -27z"/>
<path d="M4752 3058 c-15 -15 -16 -45 -1 -53 18 -12 59 4 59 23 0 20 -18 42
-35 42 -6 0 -16 -5 -23 -12z"/>
<path d="M4437 3004 c-11 -11 -8 -52 4 -60 6 -3 18 1 27 10 13 12 14 21 6 33
-12 20 -27 26 -37 17z"/>
<path d="M3570 2960 c0 -21 7 -25 27 -12 9 6 7 11 -7 20 -17 11 -20 10 -20 -8z"/>
<path d="M9967 2929 c-20 -11 -23 -49 -4 -49 16 0 37 34 28 48 -4 7 -12 7 -24
1z"/>
<path d="M5129 2897 c-19 -26 -35 -112 -19 -102 5 3 10 2 10 -3 0 -17 39 -1
45 18 3 10 12 21 20 24 30 11 10 86 -23 86 -9 0 -24 -11 -33 -23z"/>
<path d="M12226 2871 c-3 -5 1 -14 8 -20 16 -13 32 2 21 19 -8 12 -22 13 -29
1z"/>
<path d="M2865 2850 c-3 -5 1 -10 9 -10 9 0 16 5 16 10 0 6 -4 10 -9 10 -6 0
-13 -4 -16 -10z"/>
<path d="M4388 2842 c-10 -2 -18 -10 -18 -18 0 -16 9 -18 29 -5 18 12 10 28
-11 23z"/>
<path d="M4595 2841 c-8 -14 12 -23 36 -16 17 6 19 9 8 16 -18 11 -36 11 -44
0z"/>
<path d="M4675 2830 c4 -6 11 -8 16 -5 14 9 11 15 -7 15 -8 0 -12 -5 -9 -10z"/>
<path d="M2498 2749 c-10 -5 -18 -21 -18 -34 0 -22 5 -25 34 -25 43 0 52 14
32 45 -18 28 -23 29 -48 14z"/>
<path d="M6151 2730 c-8 -4 -16 -18 -18 -29 -4 -30 33 -28 41 1 7 27 -4 40
-23 28z"/>
<path d="M6613 2718 c-28 -14 -29 -20 -2 -36 18 -11 23 -11 35 5 24 32 6 50
-33 31z"/>
<path d="M5545 2686 c-16 -15 -22 -27 -15 -31 16 -10 68 17 73 37 7 27 -27 23
-58 -6z"/>
<path d="M11186 2701 c-8 -13 4 -42 15 -35 12 7 12 44 0 44 -6 0 -12 -4 -15
-9z"/>
<path d="M11037 2665 c-17 -57 -19 -97 -6 -106 21 -13 25 -11 36 14 8 17 6 33
-7 67 -14 35 -18 40 -23 25z"/>
<path d="M5991 2649 c-12 -34 5 -52 42 -45 57 11 79 51 30 52 -16 1 -36 4 -45
8 -13 6 -20 2 -27 -15z"/>
<path d="M6540 2558 c0 -8 7 -15 15 -15 18 0 15 19 -3 25 -7 2 -12 -3 -12 -10z"/>
<path d="M6401 2524 c0 -11 3 -14 6 -6 3 7 2 16 -1 19 -3 4 -6 -2 -5 -13z"/>
<path d="M4870 2475 c0 -8 5 -15 10 -15 6 0 10 7 10 15 0 8 -4 15 -10 15 -5 0
-10 -7 -10 -15z"/>
<path d="M6450 2471 c0 -9 6 -26 14 -37 14 -18 15 -18 24 6 12 32 7 45 -18 47
-13 1 -20 -4 -20 -16z"/>
<path d="M8077 2461 c-2 -10 0 -26 5 -35 13 -23 38 -3 38 30 0 29 -35 34 -43
5z"/>
<path d="M10086 2445 c-16 -12 -12 -16 38 -46 31 -19 56 -37 56 -41 0 -14 20
-9 40 10 14 13 16 21 9 32 -8 11 -12 12 -16 3 -5 -15 -33 -18 -33 -4 0 4 -17
20 -38 33 -32 22 -41 24 -56 13z"/>
<path d="M7850 2420 c-12 -8 -13 -11 -1 -19 11 -7 11 -9 0 -13 -9 -3 -8 -6 4
-11 14 -5 17 -1 17 23 0 34 0 33 -20 20z"/>
<path d="M7390 2355 c-14 -36 -13 -37 13 -33 16 2 22 10 22 27 0 34 -23 38
-35 6z"/>
<path d="M8459 2364 c-11 -14 -10 -19 11 -35 14 -10 33 -25 42 -33 30 -26 31
11 2 50 -30 39 -36 41 -55 18z"/>
<path d="M11340 2330 c-12 -8 -12 -10 3 -16 21 -8 35 2 21 16 -5 5 -15 6 -24
0z"/>
<path d="M11480 2266 c0 -20 27 -39 45 -32 23 8 18 33 -7 40 -33 8 -38 8 -38
-8z"/>
<path d="M5526 2251 c-9 -14 4 -41 20 -41 15 0 37 34 27 44 -9 9 -41 7 -47 -3z"/>
<path d="M8447 2183 c-16 -4 -18 -11 -12 -54 6 -45 5 -49 -13 -49 -25 0 -34
-12 -26 -34 10 -26 82 -20 150 13 32 16 71 32 87 35 18 4 27 13 27 27 0 25
-29 37 -44 17 -12 -17 -32 -9 -68 25 -10 9 -27 17 -37 17 -11 0 -25 2 -33 4
-7 2 -21 2 -31 -1z"/>
<path d="M8170 2095 c0 -8 5 -15 10 -15 6 0 10 7 10 15 0 8 -4 15 -10 15 -5 0
-10 -7 -10 -15z"/>
<path d="M8243 2093 c-27 -5 -30 -33 -7 -68 22 -33 46 -31 84 6 41 42 36 64
-15 65 -22 1 -50 0 -62 -3z"/>
<path d="M8711 2005 c-14 -39 -14 -85 0 -85 16 0 69 62 69 81 0 9 -6 21 -12
26 -23 19 -45 10 -57 -22z"/>
<path d="M8630 1889 c-15 -27 3 -49 41 -49 34 0 42 11 33 45 -8 33 -58 36 -74
4z"/>
<path d="M9096 1878 c-21 -77 -25 -110 -16 -132 23 -63 87 -87 114 -43 8 12
17 49 21 82 3 33 8 67 11 76 3 12 -3 16 -23 16 -16 0 -45 3 -66 7 -27 5 -38 3
-41 -6z"/>
<path d="M8552 1828 c-17 -17 -15 -47 4 -55 23 -9 51 23 38 44 -14 22 -27 26
-42 11z"/>
<path d="M8310 1805 c-8 -10 -27 -15 -52 -13 -52 3 -71 -17 -40 -42 12 -10 22
-22 22 -27 0 -16 75 -83 92 -83 31 0 37 106 9 158 -14 26 -15 26 -31 7z"/>
<path d="M8164 1618 c3 -13 5 -25 6 -28 1 -7 30 32 30 42 0 4 -9 8 -20 8 -15
0 -19 -5 -16 -22z"/>
</g>
</svg>
