<?xml version="1.0" standalone="no"?>
<!DOCTYPE svg PUBLIC "-//W3C//DTD SVG 20010904//EN"
 "http://www.w3.org/TR/2001/REC-SVG-20010904/DTD/svg10.dtd">
<svg version="1.0" xmlns="http://www.w3.org/2000/svg"
 width="717.000000pt" height="710.000000pt" viewBox="0 0 717.000000 710.000000"
 preserveAspectRatio="xMidYMid meet">

<g transform="translate(0.000000,710.000000) scale(0.100000,-0.100000)"
fill="#000000" stroke="none">
<path d="M4059 6480 c-17 -16 -34 -30 -38 -32 -14 -6 -51 -67 -51 -85 0 -10
-7 -27 -15 -37 -8 -11 -15 -32 -15 -46 0 -14 -5 -31 -12 -38 -6 -6 -15 -35
-20 -64 -17 -113 -41 -225 -50 -234 -5 -4 -8 -15 -8 -25 0 -10 -9 -33 -20 -51
-11 -18 -20 -45 -20 -59 0 -14 -8 -43 -19 -64 -19 -40 -17 -73 5 -82 8 -3 14
-11 14 -19 0 -8 5 -14 10 -14 6 0 10 7 10 15 0 19 7 19 26 1 8 -8 11 -21 8
-29 -4 -12 13 -16 98 -22 78 -6 109 -12 127 -26 13 -11 41 -22 63 -25 21 -4
38 -11 38 -16 0 -5 34 -42 75 -83 41 -41 75 -83 75 -94 0 -12 11 -23 30 -30
37 -12 50 -40 26 -53 -16 -9 -16 -11 4 -30 29 -27 50 -16 50 24 0 22 -7 37
-20 46 -11 7 -20 21 -20 31 0 11 -4 23 -10 26 -5 3 -10 17 -10 30 0 14 -14 39
-35 59 -19 20 -35 40 -35 46 0 5 -9 10 -20 10 -24 0 -66 39 -62 57 2 7 -6 25
-17 40 -51 73 -31 112 43 87 66 -23 75 -12 70 79 -10 155 -11 212 -2 224 6 8
3 18 -11 30 -12 9 -21 23 -21 31 0 7 -5 10 -11 6 -6 -3 -24 8 -41 26 -24 27
-29 39 -24 65 9 48 -1 65 -38 65 -18 0 -35 3 -39 6 -6 7 12 45 28 56 6 5 5 12
-3 20 -9 9 -12 9 -12 -4 0 -9 -9 -19 -19 -23 -15 -5 -19 -16 -19 -57 -1 -42
-5 -55 -25 -72 -39 -34 -57 -86 -58 -170 -1 -59 3 -81 16 -95 12 -14 15 -33
13 -74 -3 -50 -5 -55 -26 -52 -12 1 -24 4 -26 6 -12 16 -47 137 -47 162 0 18
0 61 0 97 0 36 0 74 0 85 0 30 29 165 44 208 19 52 119 147 142 134 25 -13 40
5 26 32 -7 12 -15 21 -19 22 -4 0 -22 2 -40 5 -26 3 -39 -2 -63 -26z m116
-870 c-3 -5 -11 -10 -16 -10 -6 0 -7 5 -4 10 3 6 11 10 16 10 6 0 7 -4 4 -10z"/>
<path d="M4190 6417 c0 -19 27 -53 36 -45 9 10 -12 58 -26 58 -5 0 -10 -6 -10
-13z"/>
<path d="M3173 6341 c-31 -20 -49 -52 -38 -70 6 -10 -32 -51 -47 -51 -4 0 -8
-11 -8 -24 0 -14 -4 -27 -9 -31 -5 -3 -7 -21 -4 -40 5 -28 3 -34 -9 -30 -11 5
-15 -3 -16 -35 -1 -30 2 -40 13 -40 9 0 18 7 21 15 4 8 10 13 14 10 5 -3 6 3
3 14 -3 10 0 22 6 25 6 4 11 15 11 25 0 12 10 20 28 24 16 3 37 18 46 32 14
22 15 32 6 60 -6 19 -9 39 -6 44 8 12 92 24 116 16 11 -4 20 -12 20 -20 0 -7
4 -15 8 -17 20 -8 92 -132 92 -158 0 -16 4 -31 9 -34 5 -4 12 -29 16 -56 4
-28 11 -50 16 -50 17 0 9 -30 -10 -42 -19 -12 -19 -13 5 -41 29 -34 31 -63 6
-76 -24 -13 -42 4 -42 37 0 13 -8 37 -17 53 -14 24 -15 31 -5 38 10 6 8 13 -7
32 -17 21 -20 22 -26 7 -9 -23 -35 -11 -35 16 -1 27 -77 83 -93 67 -20 -20
-46 -11 -63 21 -16 30 -17 31 -30 13 -8 -10 -14 -36 -14 -56 0 -21 -6 -50 -12
-65 -10 -22 -10 -28 0 -32 6 -2 12 -11 12 -19 0 -11 -5 -13 -17 -8 -25 11 -57
8 -61 -5 -4 -12 -32 -14 -32 -1 0 5 7 11 15 15 18 7 20 26 3 26 -15 0 -38 -45
-38 -73 0 -10 -5 -28 -11 -39 -6 -12 -13 -42 -15 -67 -2 -25 -6 -63 -9 -83 -3
-21 -6 -55 -8 -76 -2 -21 -7 -44 -11 -50 -4 -7 -3 -12 3 -12 5 0 12 6 14 13 3
6 6 3 6 -8 1 -12 6 -26 12 -32 6 -6 9 -23 7 -39 -2 -21 -9 -30 -26 -32 -15 -2
-22 -9 -20 -20 1 -9 -1 -22 -4 -28 -4 -6 1 -17 11 -26 17 -14 19 -12 30 33 8
31 18 49 28 49 8 0 28 9 44 21 37 26 59 13 59 -35 0 -46 11 -76 26 -76 21 0
17 -40 -7 -80 -36 -60 -61 -65 -84 -20 -9 17 -13 35 -9 41 4 7 -5 10 -24 8
-16 -2 -37 2 -45 10 -29 24 -39 1 -13 -30 34 -40 43 -87 21 -103 -16 -11 -16
-17 -5 -50 7 -21 10 -54 7 -73 -5 -29 -3 -36 13 -40 10 -3 24 -18 30 -34 10
-23 10 -33 -2 -51 -21 -33 -31 -105 -15 -112 9 -5 9 -7 0 -12 -30 -14 -7 -104
26 -104 5 0 9 -12 8 -27 -1 -19 3 -28 17 -31 31 -6 41 14 22 43 -18 27 -14 45
9 45 18 0 28 -32 13 -41 -7 -4 -9 -11 -6 -15 4 -3 14 1 23 10 9 9 23 16 31 16
8 0 14 4 14 10 0 17 40 33 54 21 9 -8 20 -7 38 1 l25 12 -31 21 c-45 30 -47
80 -6 162 18 35 41 68 52 74 27 14 77 71 78 87 0 7 11 28 25 46 14 18 25 44
25 59 0 14 12 38 28 54 15 16 43 51 62 77 34 46 73 94 155 190 22 26 42 52 43
57 2 5 -10 25 -27 45 -17 19 -31 41 -31 49 0 7 -10 26 -23 42 -28 35 -43 67
-57 120 -6 23 -15 45 -20 48 -6 3 -10 15 -10 26 0 10 -9 38 -19 62 -11 23 -25
61 -30 83 -6 23 -22 58 -36 78 -14 20 -25 46 -25 56 0 11 -4 20 -8 20 -5 0
-23 22 -40 49 -35 53 -114 111 -153 111 -13 0 -38 -9 -56 -19z m292 -601 c11
-16 23 -30 28 -30 11 0 9 -36 -5 -65 -7 -16 -19 -25 -34 -25 -23 0 -54 -24
-54 -41 0 -5 5 -9 10 -9 6 0 10 -11 10 -25 0 -16 -6 -25 -16 -25 -12 0 -15 -7
-12 -25 3 -14 1 -25 -5 -25 -6 0 -7 -18 -4 -45 5 -35 3 -47 -8 -51 -21 -8 -59
25 -85 73 -23 44 -21 63 10 63 22 0 35 16 21 25 -12 7 -4 36 14 50 17 14 29
55 16 55 -6 0 -11 20 -11 45 0 44 0 45 39 51 22 4 42 13 45 20 8 21 19 17 41
-16z m-135 -106 c0 -8 -4 -12 -10 -9 -5 3 -10 10 -10 16 0 5 5 9 10 9 6 0 10
-7 10 -16z m125 -54 c3 -5 -1 -10 -9 -10 -9 0 -16 5 -16 10 0 6 4 10 9 10 6 0
13 -4 16 -10z m-174 -246 c10 -13 10 -17 -2 -25 -25 -16 -36 -10 -31 16 5 29
14 31 33 9z m-51 -108 c0 -3 -4 -8 -10 -11 -5 -3 -10 -1 -10 4 0 6 5 11 10 11
6 0 10 -2 10 -4z"/>
<path d="M4230 6130 c0 -5 5 -10 10 -10 6 0 10 5 10 10 0 6 -4 10 -10 10 -5 0
-10 -4 -10 -10z"/>
<path d="M3156 6121 c-4 -7 -5 -15 -2 -18 9 -9 19 4 14 18 -4 11 -6 11 -12 0z"/>
<path d="M3040 5989 c0 -11 5 -17 10 -14 6 3 10 13 10 21 0 8 -4 14 -10 14 -5
0 -10 -9 -10 -21z"/>
<path d="M2940 5500 c0 -5 5 -10 10 -10 6 0 10 5 10 10 0 6 -4 10 -10 10 -5 0
-10 -4 -10 -10z"/>
<path d="M3840 5490 c0 -5 7 -10 17 -10 9 0 29 -14 44 -31 l28 -31 -20 -34
c-24 -44 -24 -51 4 -60 29 -9 55 -36 49 -52 -3 -9 3 -11 23 -6 21 5 32 1 51
-20 14 -14 34 -26 44 -26 18 0 20 5 14 54 -4 35 -3 56 5 60 19 12 12 35 -24
75 -24 26 -31 41 -23 44 7 2 10 8 5 12 -4 5 -13 3 -19 -3 -7 -7 -29 -12 -49
-12 -31 0 -38 4 -43 25 -6 22 -11 25 -56 25 -28 0 -50 -4 -50 -10z"/>
<path d="M3710 5420 c0 -5 9 -10 20 -10 11 0 20 5 20 10 0 6 -9 10 -20 10 -11
0 -20 -4 -20 -10z"/>
<path d="M3798 5382 c-7 -9 -25 -25 -40 -35 -31 -19 -36 -51 -13 -81 15 -19
35 -14 35 10 0 9 11 14 30 14 17 0 39 9 50 20 21 21 27 35 10 25 -5 -3 -17 10
-27 29 -19 41 -26 44 -45 18z"/>
<path d="M3597 5309 c-9 -6 -15 -14 -12 -20 10 -15 23 -10 35 11 12 22 4 25
-23 9z"/>
<path d="M4290 5196 c0 -25 -5 -35 -20 -39 -17 -4 -19 -11 -13 -58 6 -53 14
-68 105 -183 39 -49 46 -54 88 -61 22 -4 40 -11 40 -16 0 -5 9 -9 20 -9 26 0
26 20 -1 27 -19 5 -20 12 -17 117 1 61 -1 117 -6 125 -5 7 -23 19 -41 27 -23
9 -34 22 -38 42 -6 31 -55 62 -96 62 -17 0 -21 -6 -21 -34z"/>
<path d="M3507 5154 c-16 -17 -5 -25 31 -22 20 2 37 8 37 13 0 12 -57 19 -68
9z"/>
<path d="M3881 5124 c-19 -8 -42 -12 -51 -9 -20 6 -70 -37 -70 -60 0 -8 -4
-15 -10 -15 -5 0 -10 -7 -10 -15 0 -19 16 -19 27 -1 8 14 24 19 56 17 29 -2
16 -31 -24 -55 -19 -11 -58 -36 -85 -53 -55 -37 -93 -41 -117 -15 -19 21 -22
48 -7 57 14 9 12 41 -3 57 -8 7 -17 25 -20 39 -8 30 -33 45 -51 30 -7 -6 -17
-6 -26 -1 -22 14 -25 13 -48 -29 -30 -53 -29 -65 8 -57 25 5 30 2 30 -15 0
-11 -6 -27 -12 -36 -36 -45 -68 -73 -83 -73 -12 0 -15 -5 -9 -22 4 -13 8 -38
8 -57 l2 -34 63 -3 c34 -2 69 -8 77 -15 11 -9 24 -8 60 6 39 15 48 15 55 4 5
-8 7 -19 4 -26 -7 -19 21 -34 64 -35 23 0 41 -2 41 -5 0 -2 -9 -17 -21 -32
-18 -24 -19 -32 -9 -51 16 -29 2 -42 -46 -43 -29 -2 -41 -8 -50 -24 -20 -41
-47 -63 -76 -63 -25 0 -28 -3 -28 -34 0 -36 -19 -59 -41 -51 -9 3 -27 -18 -51
-60 l-36 -65 43 0 c26 0 50 -6 59 -16 19 -19 20 -31 4 -31 -7 0 -17 -2 -23 -3
-5 -2 -31 0 -57 4 -47 8 -52 13 -49 49 2 19 -33 25 -44 7 -3 -6 -17 -7 -31 -4
-26 7 -34 -12 -12 -34 9 -9 8 -16 -4 -29 -29 -31 -1 -52 79 -61 70 -7 97 -21
160 -80 15 -14 32 -21 42 -17 10 3 24 -1 31 -10 17 -21 5 -31 -17 -14 -15 12
-16 12 -10 -4 4 -11 -1 -25 -14 -38 -18 -18 -25 -20 -47 -10 -33 16 -55 -2
-27 -22 11 -9 15 -19 10 -27 -4 -7 -2 -16 6 -21 12 -7 12 -9 0 -9 -9 0 -10 -4
-4 -12 6 -7 16 -30 23 -51 l12 -39 22 20 c11 11 33 22 49 26 17 4 27 13 27 25
0 10 7 24 15 31 14 12 14 15 -1 31 -10 11 -25 19 -36 19 -10 0 -18 6 -18 14 0
21 16 28 32 13 7 -7 26 -20 41 -30 16 -10 26 -25 25 -35 -2 -13 5 -17 32 -17
31 0 35 -3 35 -27 0 -24 36 -68 57 -68 4 0 8 -9 8 -19 0 -17 -47 -61 -65 -61
-4 0 -26 16 -49 35 -24 19 -51 35 -60 35 -22 0 -39 -45 -26 -71 10 -18 16 -21
50 -23 8 -1 26 -9 40 -19 20 -14 23 -20 14 -35 -14 -21 -44 -28 -44 -10 0 7
-16 22 -36 33 -29 15 -39 17 -55 7 -24 -15 -74 7 -84 38 -3 11 -13 20 -21 20
-7 0 -19 9 -26 20 -9 13 -19 18 -34 14 -14 -4 -33 2 -52 16 -21 15 -39 21 -57
17 -28 -5 -70 24 -57 38 9 9 -36 -3 -66 -17 -17 -9 -25 -9 -34 0 -22 22 -49
13 -60 -19 -6 -17 -21 -34 -34 -39 -29 -11 -32 -40 -4 -40 11 0 25 -9 32 -20
7 -11 18 -20 24 -20 16 0 45 -35 37 -45 -5 -4 -1 -6 7 -3 8 3 14 13 12 23 -2
11 2 15 10 13 7 -3 12 -15 10 -27 -5 -32 25 -73 47 -66 11 3 25 -3 36 -15 10
-11 15 -20 10 -20 -4 0 -3 -6 3 -12 6 -7 11 -24 11 -38 5 -90 8 -107 22 -127
12 -17 25 -22 60 -21 24 0 54 5 66 10 33 16 72 3 66 -22 -4 -13 0 -20 9 -20
18 0 68 -55 68 -75 0 -25 20 -17 32 13 16 40 17 106 2 126 -17 24 -48 17 -52
-12 -6 -42 -18 -22 -18 28 1 38 5 50 16 50 9 0 21 -5 27 -11 6 -6 51 -9 124
-6 142 6 162 9 173 25 5 9 19 12 40 8 46 -8 129 16 136 40 6 24 55 100 70 109
6 4 17 2 25 -5 9 -7 15 -8 20 0 9 14 -4 32 -18 24 -7 -4 1 5 17 20 25 24 32
26 57 16 15 -7 35 -20 45 -31 9 -10 25 -19 34 -19 10 0 34 -7 53 -15 58 -24
70 -21 62 18 -12 59 -16 65 -46 76 -29 10 -58 37 -79 73 -8 13 -4 23 17 42 22
21 24 27 14 40 -8 9 -22 16 -32 16 -10 0 -24 8 -31 19 -7 10 -24 22 -38 26
-14 4 -40 21 -58 36 -18 16 -44 29 -58 29 -18 0 -28 7 -31 20 -3 12 -24 30
-45 41 -22 11 -43 29 -45 40 -3 11 -19 27 -35 35 -16 8 -36 30 -44 49 -7 18
-19 35 -25 37 -7 2 -9 12 -5 26 17 53 145 -14 146 -75 0 -13 4 -23 9 -23 5 0
22 -5 37 -10 20 -8 24 -14 16 -22 -19 -19 5 -48 38 -48 17 0 30 4 30 9 0 5 12
12 27 16 22 5 33 0 60 -29 22 -23 47 -38 71 -42 20 -4 46 -14 56 -23 14 -12
20 -13 23 -3 5 14 83 17 83 2 0 -5 9 -10 21 -10 19 0 20 4 14 55 -7 53 -7 55
21 66 16 6 58 17 93 25 36 8 69 18 75 24 5 5 18 10 28 10 10 0 37 17 61 39 23
21 52 43 63 49 13 7 24 25 28 45 4 19 15 42 26 52 22 20 25 46 10 76 -14 26
-100 28 -100 3 0 -14 -9 -16 -50 -12 -40 4 -57 12 -82 37 -17 17 -34 31 -39
31 -5 0 -3 11 3 25 12 26 22 30 72 26 23 -2 28 1 22 14 -3 9 -6 21 -6 26 0 5
-7 9 -15 9 -8 0 -19 9 -25 19 -6 13 -17 17 -30 14 -11 -3 -27 0 -35 7 -8 7
-24 10 -35 7 -10 -3 -24 1 -30 8 -6 7 -19 11 -30 8 -12 -3 -22 3 -30 19 -14
26 -60 67 -76 68 -6 0 -21 12 -35 26 -13 14 -39 32 -57 39 -18 8 -36 25 -42
40 -5 14 -12 25 -16 25 -3 0 -3 -7 0 -16 3 -8 2 -12 -4 -9 -6 3 -10 17 -10 30
0 17 -4 23 -14 19 -8 -3 -20 4 -28 14 -7 11 -24 22 -37 24 -19 2 -27 13 -38
53 -8 28 -21 55 -29 61 -8 6 -14 15 -14 19 0 12 -42 49 -84 73 -43 25 -96 28
-145 6z m-77 -347 l7 -28 -31 22 c-34 26 -37 36 -12 42 22 5 28 -1 36 -36z
m-450 -523 c10 -25 1 -27 -19 -4 -15 17 -16 20 -3 20 9 0 19 -7 22 -16z m246
-909 c0 -16 -27 -32 -37 -22 -3 4 -3 13 0 22 8 20 37 20 37 0z"/>
<path d="M3400 4985 c-7 -9 -11 -18 -8 -20 3 -3 11 1 18 10 7 9 11 18 8 20 -3
3 -11 -1 -18 -10z"/>
<path d="M2962 4816 c1 -10 8 -17 13 -17 15 1 12 24 -3 29 -9 3 -13 -2 -10
-12z"/>
<path d="M2960 4740 c0 -5 5 -10 10 -10 6 0 10 5 10 10 0 6 -4 10 -10 10 -5 0
-10 -4 -10 -10z"/>
<path d="M3150 4675 c-8 -9 -8 -15 -2 -15 12 0 26 19 19 26 -2 2 -10 -2 -17
-11z"/>
<path d="M4768 4433 c7 -3 16 -2 19 1 4 3 -2 6 -13 5 -11 0 -14 -3 -6 -6z"/>
<path d="M2670 4370 c0 -5 5 -10 10 -10 6 0 10 5 10 10 0 6 -4 10 -10 10 -5 0
-10 -4 -10 -10z"/>
<path d="M3400 4370 c0 -5 5 -10 10 -10 6 0 10 5 10 10 0 6 -4 10 -10 10 -5 0
-10 -4 -10 -10z"/>
<path d="M3180 4330 c0 -5 5 -10 10 -10 6 0 10 5 10 10 0 6 -4 10 -10 10 -5 0
-10 -4 -10 -10z"/>
<path d="M3280 4330 c-13 -8 -13 -10 2 -10 9 0 20 5 23 10 8 13 -5 13 -25 0z"/>
<path d="M3048 4283 c-25 -6 -22 -18 8 -38 21 -13 38 -15 85 -10 63 7 72 25
13 25 -19 0 -47 6 -62 13 -15 8 -35 12 -44 10z"/>
<path d="M3220 4225 c-10 -13 -9 -15 9 -15 12 0 21 6 21 15 0 8 -4 15 -9 15
-5 0 -14 -7 -21 -15z"/>
<path d="M2650 4220 c0 -5 7 -10 16 -10 8 0 12 5 9 10 -3 6 -10 10 -16 10 -5
0 -9 -4 -9 -10z"/>
<path d="M2301 4161 c-8 -5 -20 -7 -28 -4 -7 3 -13 0 -13 -6 0 -6 7 -11 15
-11 9 0 18 -7 21 -15 4 -8 13 -15 20 -15 8 0 17 -7 21 -16 3 -8 11 -13 19 -10
7 3 18 -2 24 -10 9 -10 9 -14 1 -14 -6 0 -11 5 -11 12 0 6 -10 0 -22 -14 -13
-14 -38 -33 -55 -42 -18 -9 -33 -19 -33 -21 0 -2 14 -12 30 -20 26 -13 30 -21
28 -50 -1 -19 -6 -35 -10 -35 -4 0 -8 -7 -8 -15 0 -8 7 -15 15 -15 8 0 15 5
15 10 0 6 6 10 13 10 21 0 50 37 44 54 -4 9 6 29 23 48 17 18 30 38 30 45 0 6
-16 28 -35 49 -19 20 -35 40 -35 45 0 9 -40 49 -49 49 -3 0 -12 -4 -20 -9z"/>
<path d="M2120 4100 c0 -5 7 -10 15 -10 8 0 15 5 15 10 0 6 -7 10 -15 10 -8 0
-15 -4 -15 -10z"/>
<path d="M2026 4062 c-3 -5 -24 -15 -47 -22 -23 -8 -46 -22 -53 -32 -6 -10
-17 -18 -24 -18 -21 0 -75 -31 -106 -61 -35 -34 -81 -140 -64 -150 6 -4 9 -21
5 -42 -5 -32 -3 -35 24 -41 30 -6 52 -37 31 -44 -7 -2 -12 -12 -12 -23 0 -13
-7 -19 -21 -19 -11 0 -23 -8 -26 -17 -2 -10 -27 -34 -54 -53 -41 -29 -49 -39
-45 -60 10 -53 -57 -146 -87 -122 -15 12 -51 -1 -68 -26 -8 -10 -24 -24 -37
-31 -13 -7 -27 -23 -32 -37 -13 -34 -38 -41 -56 -15 -8 11 -28 28 -45 36 -22
12 -29 23 -29 44 0 16 -6 34 -14 40 -8 7 -17 35 -21 64 -4 29 -12 58 -17 65
-8 9 -6 18 6 30 19 22 21 42 4 43 -7 1 -17 2 -23 4 -5 1 -18 3 -27 3 -22 2
-23 21 -4 36 8 6 17 21 21 34 6 20 3 22 -29 22 -37 0 -47 -15 -25 -37 19 -19
0 -49 -41 -68 -37 -17 -41 -17 -58 -2 -19 18 -72 23 -72 8 0 -11 31 -25 50
-22 12 2 13 0 3 -10 -20 -20 -15 -39 10 -39 44 0 66 -46 25 -52 -13 -2 -22 -7
-20 -13 4 -12 35 -7 43 7 4 6 12 7 19 3 14 -9 -21 -45 -43 -45 -8 0 -26 -9
-41 -21 -29 -22 -46 -18 -46 12 0 11 -7 19 -16 19 -13 0 -14 -3 -4 -14 10 -13
4 -15 -42 -15 -68 0 -91 7 -84 25 8 20 -17 17 -47 -6 -14 -11 -30 -20 -36 -20
-15 0 -14 17 2 24 6 4 2 4 -11 2 -12 -2 -20 0 -17 5 4 5 -3 18 -14 30 -24 26
-56 19 -48 -11 6 -23 -7 -36 -46 -45 -17 -5 -38 -24 -59 -56 -39 -61 -68 -67
-62 -11 4 31 0 42 -26 70 -33 36 -48 33 -83 -14 -18 -24 -18 -24 6 -24 13 0
35 -13 50 -28 28 -29 27 -42 -3 -42 -9 0 -25 -9 -35 -20 -29 -33 -68 -26 -109
20 -30 34 -36 37 -36 19 0 -11 7 -27 16 -36 11 -11 12 -19 5 -26 -39 -39 35
-444 136 -746 50 -150 127 -335 175 -420 17 -31 41 -76 53 -101 13 -26 30 -52
39 -59 9 -7 16 -19 16 -25 0 -7 11 -23 25 -36 14 -13 24 -29 21 -36 -7 -19 1
-21 49 -14 46 7 68 -4 64 -32 -7 -52 28 -51 61 1 23 39 50 48 30 11 -15 -28
-14 -29 35 -25 50 3 50 3 33 -24 -12 -19 -5 -51 10 -51 5 0 26 16 47 37 33 32
39 34 47 20 15 -28 34 -19 48 22 9 29 19 40 38 44 25 5 33 0 61 -36 12 -15 11
-20 -3 -36 -15 -16 -15 -20 -2 -31 14 -10 14 -16 1 -40 -23 -45 18 -69 57 -33
17 15 21 15 30 3 8 -12 9 -11 4 4 -4 12 3 33 19 57 14 21 25 50 25 64 0 28 21
33 40 10 6 -8 24 -13 38 -11 15 2 21 1 14 -1 -24 -9 -32 -50 -17 -86 15 -36
53 -56 67 -34 11 17 10 47 -2 47 -5 0 -10 9 -10 20 0 26 15 25 34 -1 9 -14 21
-19 31 -15 9 3 28 3 42 0 19 -5 23 -11 19 -27 -3 -12 0 -27 6 -34 14 -18 48
-16 48 2 0 8 7 15 15 15 19 0 20 -26 1 -37 -8 -4 -17 -20 -21 -35 -6 -23 -2
-28 29 -43 20 -10 39 -21 42 -26 3 -5 16 -2 30 7 22 15 24 15 24 0 0 -10 5
-14 11 -11 5 4 9 19 7 33 -2 22 2 28 20 30 12 2 22 10 22 18 0 9 11 14 34 14
29 0 34 -4 39 -30 4 -16 3 -38 0 -47 -5 -15 -4 -16 8 -7 8 6 27 14 43 18 16 4
43 18 59 32 46 38 61 33 53 -21 -6 -40 -5 -45 12 -45 11 0 27 16 41 40 23 42
45 49 82 30 24 -13 50 0 68 34 11 21 12 28 1 41 -17 21 -37 19 -45 -5 -7 -23
-30 -26 -42 -6 -10 17 -79 37 -99 29 -10 -3 -17 2 -20 13 -3 11 -24 29 -47 40
-23 11 -46 30 -52 42 -8 18 -15 21 -37 17 -33 -8 -48 13 -23 31 21 16 19 19
-27 43 -40 22 -45 39 -23 85 29 60 111 91 137 52 5 -8 8 -7 8 2 0 6 9 12 20
12 12 0 32 12 45 26 19 20 30 25 49 20 31 -8 71 10 83 37 10 23 -6 65 -32 87
-8 7 -15 19 -15 26 0 7 -13 23 -30 36 -16 12 -33 31 -36 42 -8 28 -44 66 -71
77 -13 5 -23 17 -23 28 0 11 -7 24 -16 29 -12 7 -15 19 -12 46 4 33 2 37 -16
34 -16 -2 -27 8 -45 42 -13 25 -30 52 -37 61 -8 8 -14 25 -14 37 0 15 -6 22
-20 22 -13 0 -20 7 -20 20 0 21 -24 28 -35 10 -4 -6 -11 -8 -16 -4 -6 4 -6 10
1 19 11 14 -3 65 -18 65 -5 0 -14 18 -21 40 -6 21 -21 46 -32 54 -23 16 -33
81 -16 103 6 9 2 16 -14 22 -13 5 -21 10 -16 10 4 1 1 11 -7 24 -24 38 -41
153 -30 196 6 23 7 48 2 62 -6 15 -5 32 3 49 7 14 11 33 10 43 -1 10 4 26 12
35 9 10 19 31 23 47 13 56 65 92 136 94 31 0 38 -4 52 -33 9 -19 16 -41 16
-49 0 -8 17 -32 39 -53 31 -31 36 -42 28 -55 -13 -20 6 -49 31 -49 15 0 15 -2
0 -17 -15 -14 -15 -19 -3 -43 7 -14 21 -32 29 -39 10 -8 13 -22 10 -41 -5 -21
-1 -31 14 -39 10 -6 22 -7 26 -4 3 3 6 -5 6 -18 0 -14 -5 -30 -11 -36 -7 -7
-3 -9 15 -6 14 3 26 11 26 19 0 27 24 27 46 -1 21 -27 22 -27 33 -7 6 11 11
31 11 44 0 27 8 39 34 53 24 14 22 29 -5 33 -22 4 -22 13 -3 79 5 19 3 22 -15
18 -32 -6 -29 52 4 84 28 26 32 41 11 41 -21 0 -30 20 -17 33 16 16 14 27 -5
27 -12 0 -14 7 -9 30 4 19 2 36 -5 45 -7 9 -9 26 -5 45 5 23 2 37 -10 50 -10
11 -15 26 -12 34 4 10 -5 16 -30 21 -34 6 -35 7 -29 43 3 20 6 49 6 64 0 15 7
33 15 42 20 19 19 36 -2 52 -14 10 -15 15 -6 24 17 19 -4 73 -27 67 -15 -4
-17 2 -15 39 3 44 3 44 -30 44 -19 0 -36 -4 -39 -8z m-136 -367 c0 -3 -7 -17
-16 -30 -8 -13 -14 -34 -12 -47 2 -17 -4 -25 -25 -32 -57 -20 -59 28 -3 92 17
19 56 31 56 17z m-305 -365 c3 -5 1 -10 -4 -10 -6 0 -11 5 -11 10 0 6 2 10 4
10 3 0 8 -4 11 -10z m-870 -40 c-3 -5 -13 -10 -21 -10 -8 0 -14 5 -14 10 0 6
9 10 21 10 11 0 17 -4 14 -10z m1080 -1320 c3 -6 -4 -10 -17 -10 -18 0 -20 2
-8 10 19 12 18 12 25 0z m-155 -41 c0 -4 -7 -6 -15 -3 -8 4 -15 10 -15 15 0 4
7 6 15 3 8 -4 15 -10 15 -15z m-660 2 c0 -6 -4 -12 -10 -16 -5 -3 -7 -12 -4
-19 5 -13 -13 -33 -22 -24 -7 7 17 68 27 68 5 0 9 -4 9 -9z m874 -29 c3 -5 -8
-20 -24 -35 -35 -34 -53 -17 -19 19 24 25 35 29 43 16z m-239 -43 c-4 -5 -13
-9 -22 -9 -13 0 -13 3 -3 15 13 15 35 11 25 -6z m150 -217 c-13 -13 -23 22
-12 42 11 20 12 20 15 -7 2 -16 1 -32 -3 -35z m395 -27 c0 -8 -4 -15 -10 -15
-5 0 -10 7 -10 15 0 8 5 15 10 15 6 0 10 -7 10 -15z m-110 -20 c0 -8 -4 -15
-10 -15 -5 0 -10 7 -10 15 0 8 5 15 10 15 6 0 10 -7 10 -15z"/>
<path d="M2230 3979 c0 -5 5 -7 10 -4 6 3 10 8 10 11 0 2 -4 4 -10 4 -5 0 -10
-5 -10 -11z"/>
<path d="M2410 3934 c0 -17 22 -14 28 4 2 7 -3 12 -12 12 -9 0 -16 -7 -16 -16z"/>
<path d="M2398 3877 c-20 -16 -32 -53 -19 -62 6 -3 17 11 26 31 17 42 16 49
-7 31z"/>
<path d="M2200 3870 c-12 -8 -10 -10 8 -10 13 0 20 4 17 10 -7 12 -6 12 -25 0z"/>
<path d="M3500 3785 c0 -8 7 -15 15 -15 8 0 15 7 15 15 0 8 -7 15 -15 15 -8 0
-15 -7 -15 -15z"/>
<path d="M3010 3720 c6 -11 15 -18 21 -14 6 4 6 11 -2 20 -17 21 -31 17 -19
-6z"/>
<path d="M1230 3709 c0 -5 5 -7 10 -4 6 3 10 8 10 11 0 2 -4 4 -10 4 -5 0 -10
-5 -10 -11z"/>
<path d="M830 3649 c0 -5 5 -7 10 -4 6 3 10 8 10 11 0 2 -4 4 -10 4 -5 0 -10
-5 -10 -11z"/>
<path d="M662 3643 c-25 -3 -32 -8 -28 -19 3 -9 1 -12 -4 -9 -15 9 -25 -24
-11 -38 9 -9 16 -9 31 1 11 6 26 12 35 12 9 0 12 6 8 17 -5 13 -2 15 11 10 13
-5 17 -3 14 10 -4 19 -11 21 -56 16z"/>
<path d="M560 3610 c0 -5 5 -10 10 -10 6 0 10 5 10 10 0 6 -4 10 -10 10 -5 0
-10 -4 -10 -10z"/>
<path d="M1210 3594 c0 -8 5 -12 10 -9 6 3 10 10 10 16 0 5 -4 9 -10 9 -5 0
-10 -7 -10 -16z"/>
<path d="M578 3573 c-10 -2 -18 -9 -18 -14 0 -15 43 -7 48 9 4 12 0 13 -30 5z"/>
<path d="M4237 3525 c-4 -16 -16 -46 -26 -65 -15 -29 -25 -36 -55 -38 -28 -3
-36 -8 -36 -23 0 -20 24 -26 35 -9 3 6 19 10 34 10 37 0 64 51 59 113 -3 41
-4 41 -11 12z"/>
<path d="M310 3490 c-28 -17 2 -32 40 -18 30 10 31 12 14 19 -26 10 -37 10
-54 -1z"/>
<path d="M280 3450 c-9 -6 -10 -10 -3 -10 6 0 15 5 18 10 8 12 4 12 -15 0z"/>
<path d="M4900 3424 c0 -8 5 -12 10 -9 6 4 8 11 5 16 -9 14 -15 11 -15 -7z"/>
<path d="M560 3384 c0 -8 5 -12 10 -9 6 4 8 11 5 16 -9 14 -15 11 -15 -7z"/>
<path d="M4010 3374 c0 -2 9 -8 20 -14 11 -6 20 -7 20 -2 0 6 -9 12 -20 15
-11 3 -20 3 -20 1z"/>
<path d="M4120 3354 c0 -8 5 -12 10 -9 6 3 10 10 10 16 0 5 -4 9 -10 9 -5 0
-10 -7 -10 -16z"/>
<path d="M3430 3312 c0 -10 21 -32 32 -32 16 0 8 19 -12 30 -11 6 -20 7 -20 2z"/>
<path d="M3650 3310 c0 -5 7 -10 15 -10 8 0 15 5 15 10 0 6 -7 10 -15 10 -8 0
-15 -4 -15 -10z"/>
<path d="M3721 3306 c-8 -10 -9 -16 -1 -21 13 -8 30 3 30 21 0 18 -14 18 -29
0z"/>
<path d="M4555 3260 c3 -5 8 -10 11 -10 2 0 4 5 4 10 0 6 -5 10 -11 10 -5 0
-7 -4 -4 -10z"/>
<path d="M4590 3231 c15 -28 26 -33 40 -17 9 12 7 17 -9 25 -31 17 -43 14 -31
-8z"/>
<path d="M4197 3221 c-3 -12 -1 -24 4 -27 13 -8 24 25 12 37 -7 7 -12 3 -16
-10z"/>
<path d="M4150 3211 c0 -5 7 -12 16 -15 14 -5 15 -4 4 9 -14 17 -20 19 -20 6z"/>
<path d="M1996 3201 c-4 -7 -5 -15 -2 -18 9 -9 19 4 14 18 -4 11 -6 11 -12 0z"/>
<path d="M3700 3124 c0 -14 3 -14 15 -4 8 7 15 14 15 16 0 2 -7 4 -15 4 -8 0
-15 -7 -15 -16z"/>
<path d="M2240 3014 c0 -9 5 -14 12 -12 18 6 21 28 4 28 -9 0 -16 -7 -16 -16z"/>
<path d="M2250 2975 c0 -8 9 -15 20 -15 11 0 20 7 20 15 0 8 -9 15 -20 15 -11
0 -20 -7 -20 -15z"/>
<path d="M2377 2946 c-4 -11 -15 -13 -40 -9 -29 4 -36 2 -42 -16 -3 -11 -11
-21 -16 -21 -5 0 -9 -10 -8 -22 0 -13 3 -17 6 -10 8 20 48 13 71 -13 27 -31
27 -33 0 -28 -28 4 -53 -11 -44 -26 5 -7 14 -8 24 -2 21 10 39 4 67 -21 21
-20 55 -19 111 2 26 10 32 42 12 60 -7 6 -30 26 -52 45 -21 19 -43 32 -49 28
-5 -3 -7 -1 -4 4 4 6 -2 18 -12 27 -16 15 -19 15 -24 2z"/>
<path d="M2527 2784 c-12 -13 -8 -34 6 -28 8 3 20 -2 27 -11 11 -13 10 -14 -4
-9 -24 9 -47 -3 -40 -21 7 -18 43 -20 79 -3 34 15 36 66 3 66 -13 0 -32 3 -43
6 -11 4 -24 4 -28 0z"/>
<path d="M2610 2614 c0 -24 42 -55 58 -42 18 15 15 36 -7 48 -29 15 -51 12
-51 -6z"/>
<path d="M5480 2616 c0 -9 5 -16 10 -16 6 0 10 4 10 9 0 6 -4 13 -10 16 -5 3
-10 -1 -10 -9z"/>
<path d="M5260 2511 c0 -11 26 -22 34 -14 3 3 3 10 0 14 -7 12 -34 11 -34 0z"/>
<path d="M2746 2491 c-14 -5 -16 -10 -7 -15 15 -9 41 -1 41 14 0 11 -7 12 -34
1z"/>
<path d="M2800 2459 c0 -5 5 -7 10 -4 6 3 10 8 10 11 0 2 -4 4 -10 4 -5 0 -10
-5 -10 -11z"/>
<path d="M5320 2456 c0 -2 7 -9 15 -16 13 -11 14 -10 9 4 -5 14 -24 23 -24 12z"/>
<path d="M2825 2399 c-7 -10 10 -28 28 -29 12 0 8 17 -7 29 -11 9 -16 9 -21 0z"/>
<path d="M6317 2276 c-3 -8 1 -20 9 -26 12 -10 14 -8 14 14 0 28 -14 35 -23
12z"/>
<path d="M3858 2273 c7 -3 16 -2 19 1 4 3 -2 6 -13 5 -11 0 -14 -3 -6 -6z"/>
<path d="M4045 2260 c-8 -13 3 -30 20 -30 20 0 30 21 14 31 -18 11 -26 11 -34
-1z"/>
<path d="M3961 2142 c-7 -13 -6 -23 2 -31 9 -9 9 -16 -1 -31 -6 -11 -12 -28
-12 -38 0 -11 -9 -27 -21 -38 -24 -21 -89 -145 -89 -169 0 -8 -5 -15 -11 -15
-13 0 -6 -57 13 -122 10 -34 15 -38 59 -47 63 -14 81 -7 73 28 -5 25 -5 25 16
-6 24 -36 69 -52 82 -29 10 18 41 9 34 -10 -6 -17 12 -21 120 -28 77 -5 84 -4
108 19 15 14 35 25 44 25 9 0 29 12 45 25 l27 24 -22 26 c-12 14 -30 25 -40
25 -16 0 -17 -6 -12 -39 6 -36 5 -39 -22 -44 -35 -6 -41 -2 -24 18 15 18 7
109 -11 131 -6 8 -9 20 -6 27 7 18 -23 43 -45 39 -9 -2 -19 2 -23 8 -10 17 36
97 62 109 31 14 29 31 -3 31 -24 0 -26 2 -20 34 6 30 4 34 -20 40 -16 4 -30 3
-34 -4 -12 -19 -74 -24 -89 -6 -9 10 -18 13 -25 7 -6 -5 -28 -12 -48 -16 -42
-8 -52 6 -18 27 18 12 17 13 -17 30 -46 23 -60 23 -72 0z m306 -461 c13 -20 8
-31 -14 -31 -7 0 -13 11 -13 25 0 30 11 32 27 6z"/>
<path d="M6058 2119 c-18 -10 -25 -49 -10 -49 5 0 17 9 27 20 22 24 9 44 -17
29z"/>
<path d="M5370 2090 c0 -5 7 -7 15 -4 8 4 15 8 15 10 0 2 -7 4 -15 4 -8 0 -15
-4 -15 -10z"/>
<path d="M6115 2078 c-2 -7 -6 -30 -10 -50 -5 -30 -13 -41 -39 -53 -20 -10
-39 -29 -46 -46 -31 -75 -125 -60 -145 23 -8 32 -30 54 -40 39 -3 -6 0 -29 6
-51 16 -52 69 -100 110 -100 27 0 30 -3 24 -22 -11 -37 -31 -46 -77 -38 -38 7
-45 5 -65 -16 -13 -14 -23 -34 -23 -45 0 -13 -7 -19 -21 -19 -14 0 -19 5 -16
14 3 8 -1 20 -10 27 -12 11 -18 9 -34 -11 -10 -14 -21 -37 -24 -52 -6 -25 -11
-28 -46 -28 -26 0 -47 7 -61 20 -26 24 -52 19 -87 -16 -13 -13 -30 -24 -37
-24 -8 0 -14 -10 -14 -22 0 -13 -4 -29 -9 -37 -7 -11 -12 -8 -25 12 -23 34
-56 24 -94 -28 -22 -31 -40 -43 -78 -54 -27 -8 -52 -19 -56 -24 -4 -7 -12 -6
-23 3 -18 15 -28 7 -78 -62 -15 -22 -22 -24 -67 -18 -41 5 -53 3 -67 -12 -20
-22 -46 -23 -63 -3 -7 9 -23 15 -34 13 -17 -2 -22 -11 -24 -45 -2 -24 -7 -43
-13 -43 -5 0 -9 -5 -9 -11 0 -6 6 -9 14 -6 8 3 26 -3 40 -14 16 -13 33 -18 46
-14 31 10 44 -4 24 -26 -15 -17 -15 -23 -4 -44 11 -21 11 -27 -2 -42 -8 -10
-18 -26 -21 -35 -4 -10 -12 -18 -20 -18 -12 0 -87 -69 -76 -71 2 0 14 -2 26
-5 17 -3 21 0 17 11 -8 19 15 19 40 0 35 -26 49 -19 43 21 -5 32 -3 36 24 46
37 13 68 71 49 93 -10 13 -10 19 4 33 18 21 21 42 6 42 -5 0 -10 4 -10 10 0 9
46 33 88 45 13 4 33 16 43 26 22 22 69 26 69 6 0 -24 40 -57 68 -57 16 0 33
-5 39 -11 13 -13 115 -56 154 -64 15 -4 30 -13 33 -21 3 -9 16 -14 28 -13 13
1 31 -2 41 -6 11 -4 23 -3 30 4 15 15 7 20 -43 26 -33 4 -51 14 -72 38 -16 19
-25 39 -22 50 3 10 0 24 -6 32 -16 19 -5 34 20 28 42 -11 65 34 34 68 -14 16
-14 18 4 28 10 6 27 22 37 37 14 22 15 30 4 50 -14 27 -3 48 12 21 14 -25 44
-21 63 8 19 29 65 33 106 10 14 -8 42 -14 63 -15 24 0 40 -5 43 -15 3 -8 15
-17 26 -21 12 -3 42 -19 67 -36 l46 -29 8 58 c4 32 8 70 7 86 0 15 3 27 7 28
5 0 18 2 31 5 13 2 35 -2 50 -10 23 -13 25 -15 9 -21 -9 -4 -24 -2 -32 5 -20
16 -32 5 -16 -14 8 -10 9 -16 1 -21 -22 -13 -8 -23 38 -27 53 -5 66 -2 55 15
-4 7 -9 21 -10 32 -2 11 -5 37 -9 58 -7 42 -2 45 34 17 18 -15 34 -19 53 -15
15 3 30 1 34 -4 6 -11 55 -16 55 -6 0 11 -25 62 -38 78 -14 16 -12 17 36 17
29 0 52 -4 52 -10 0 -21 27 -9 40 18 8 15 24 41 36 57 11 17 30 49 41 72 19
39 20 43 4 57 -10 9 -26 13 -39 9 -12 -3 -33 2 -47 11 -33 22 -39 21 -52 -14
-7 -19 -18 -30 -30 -30 -11 0 -24 -5 -29 -10 -7 -7 -19 -4 -38 11 -20 16 -30
19 -39 10 -16 -16 -57 -14 -57 4 0 8 -5 15 -10 15 -6 0 -8 25 -4 70 5 51 4 70
-5 70 -6 0 -13 -6 -16 -12z m-60 -268 c-3 -5 -10 -10 -16 -10 -5 0 -9 5 -9 10
0 6 7 10 16 10 8 0 12 -4 9 -10z m-465 -160 c0 -5 -2 -10 -4 -10 -3 0 -8 5
-11 10 -3 6 -1 10 4 10 6 0 11 -4 11 -10z m155 -19 c3 -5 1 -12 -5 -16 -5 -3
-10 1 -10 9 0 18 6 21 15 7z m-296 -213 c12 -31 7 -34 -17 -10 -11 11 -18 23
-14 26 11 12 23 6 31 -16z m-147 0 c-9 -9 -15 -9 -24 0 -9 9 -7 12 12 12 19 0
21 -3 12 -12z"/>
<path d="M5906 2054 c-8 -21 1 -34 25 -34 20 0 23 8 13 34 -8 21 -30 21 -38 0z"/>
<path d="M3656 2012 c-3 -6 -1 -14 5 -17 15 -10 25 3 12 16 -7 7 -13 7 -17 1z"/>
<path d="M6280 1975 c-7 -8 -8 -15 -2 -15 5 0 15 7 22 15 7 8 8 15 2 15 -5 0
-15 -7 -22 -15z"/>
<path d="M5396 1912 l-58 -17 6 -60 c16 -139 21 -160 36 -160 11 0 16 13 18
43 3 39 5 42 27 36 45 -11 193 -9 206 3 23 23 -2 33 -82 33 -43 0 -79 3 -79 8
0 4 7 16 15 26 17 23 19 59 5 87 -12 22 -16 22 -94 1z m64 -40 c0 -16 -32 -52
-46 -52 -14 0 -20 41 -7 53 9 10 53 9 53 -1z"/>
<path d="M5192 1802 c-55 -43 -80 -124 -47 -152 8 -7 15 -19 15 -27 0 -12 8
-14 38 -8 20 4 44 13 52 20 8 8 27 18 43 24 32 12 37 41 7 41 -12 0 -35 -7
-53 -16 -28 -14 -26 -11 16 29 39 37 48 51 45 74 -3 26 -7 28 -48 31 -31 1
-52 -3 -68 -16z m82 -20 c3 -5 -19 -30 -49 -56 -54 -47 -55 -47 -55 -21 0 46
85 108 104 77z"/>
<path d="M5027 1773 c-4 -3 -7 -21 -7 -39 0 -26 -6 -36 -27 -46 -16 -7 -28
-20 -28 -28 0 -15 10 -16 50 -9 18 4 20 -2 20 -61 1 -111 25 -170 39 -95 4 19
11 35 16 35 6 0 10 7 10 16 0 8 -4 13 -9 10 -4 -3 -11 25 -14 61 -6 62 -5 69
18 93 33 34 32 44 -4 37 -23 -5 -30 -2 -34 13 -5 20 -18 26 -30 13z"/>
<path d="M798 1718 c19 -32 62 -40 62 -10 0 30 -15 43 -48 40 l-31 -2 17 -28z"/>
<path d="M2647 1713 c-3 -3 -42 -5 -86 -5 -44 1 -83 -3 -86 -9 -4 -5 -17 -6
-31 -3 -14 4 -31 1 -39 -6 -9 -7 -30 -13 -48 -13 -18 0 -24 -2 -15 -4 9 -2 20
-13 23 -23 3 -10 21 -28 40 -41 19 -13 33 -30 30 -37 -8 -22 14 -62 34 -62 22
0 71 58 71 83 0 10 6 17 14 17 8 0 16 5 18 11 3 8 11 8 27 -2 19 -11 25 -11
28 -1 6 16 20 15 26 -2 4 -10 1 -13 -9 -9 -10 4 -14 -3 -14 -29 0 -47 20 -73
49 -63 19 6 21 11 16 33 -13 47 -11 55 17 63 35 9 62 35 55 53 -3 8 -21 17
-39 21 -18 4 -43 13 -54 20 -12 8 -24 11 -27 8z"/>
<path d="M893 1690 c-30 -24 -29 -39 3 -35 35 3 47 17 32 38 -12 15 -15 15
-35 -3z"/>
<path d="M1094 1699 c-3 -6 -1 -16 5 -22 9 -9 14 -8 21 3 9 15 4 30 -10 30 -5
0 -12 -5 -16 -11z"/>
<path d="M5618 1693 c7 -3 16 -2 19 1 4 3 -2 6 -13 5 -11 0 -14 -3 -6 -6z"/>
<path d="M2240 1660 c0 -5 7 -10 15 -10 8 0 15 5 15 10 0 6 -7 10 -15 10 -8 0
-15 -4 -15 -10z"/>
<path d="M4669 1649 c-12 -8 -11 -12 5 -24 25 -19 32 -19 40 0 7 19 -25 37
-45 24z"/>
<path d="M4842 1636 c-28 -14 -34 -35 -30 -111 2 -45 7 -60 18 -60 11 0 17 15
21 50 9 69 18 95 34 95 9 0 15 -15 17 -42 2 -36 7 -44 26 -46 21 -3 22 -1 16
40 -12 73 -20 88 -51 87 -16 -1 -38 -7 -51 -13z"/>
<path d="M1517 1538 c-7 -47 12 -65 43 -40 22 17 23 23 12 46 -17 38 -48 34
-55 -6z"/>
<path d="M4572 1558 c-5 -7 -12 -49 -14 -94 -2 -44 -8 -86 -12 -93 -12 -19
-42 13 -62 65 -9 24 -22 44 -29 44 -7 0 -17 -29 -25 -69 -18 -97 -24 -103 -61
-63 -16 18 -32 46 -36 63 -7 38 -33 38 -33 0 0 -17 5 -33 10 -36 6 -3 10 -15
10 -26 0 -10 4 -27 9 -37 5 -9 12 -25 15 -34 3 -11 15 -18 30 -18 29 0 52 -41
59 -105 3 -33 -1 -44 -20 -63 -33 -31 -26 -54 20 -65 34 -8 37 -12 37 -43 0
-27 4 -34 20 -34 14 0 20 7 20 23 0 13 9 32 21 43 17 16 22 16 29 4 6 -8 10
-18 10 -22 0 -4 11 -10 25 -14 15 -4 25 -13 25 -23 0 -26 -8 -30 -40 -21 -26
8 -29 6 -34 -26 -7 -36 7 -74 27 -74 20 0 37 22 37 47 0 28 31 91 48 98 7 3
23 0 35 -7 19 -10 24 -7 42 17 11 16 41 51 68 78 26 27 47 54 47 62 0 7 7 18
15 25 23 19 18 39 -12 46 -16 4 -34 14 -41 22 -11 15 -15 15 -43 -2 -23 -14
-41 -16 -78 -11 -47 6 -48 6 -103 -49 -57 -57 -86 -68 -108 -41 -10 12 -10 21
1 46 12 31 11 33 -25 66 -26 24 -34 38 -28 46 6 7 16 31 23 55 10 36 14 40 22
25 26 -49 77 -57 104 -17 12 19 17 48 18 103 0 42 4 82 8 89 16 25 -12 43 -31
20z m164 -423 c1 -13 -2 -27 -7 -30 -5 -4 -9 -15 -9 -26 0 -11 -7 -19 -16 -19
-13 0 -15 7 -9 43 11 66 35 86 41 32z m-46 -89 c0 -3 -4 -8 -10 -11 -5 -3 -10
-1 -10 4 0 6 5 11 10 11 6 0 10 -2 10 -4z"/>
<path d="M1286 1535 c4 -8 10 -12 15 -9 14 8 10 24 -6 24 -9 0 -12 -6 -9 -15z"/>
<path d="M2570 1534 c0 -8 5 -12 10 -9 6 4 8 11 5 16 -9 14 -15 11 -15 -7z"/>
<path d="M2885 1533 c-14 -14 -22 -15 -46 -6 -25 10 -29 9 -29 -6 0 -10 9 -26
21 -37 l21 -19 -28 -5 c-18 -3 -30 -12 -32 -24 -3 -11 0 -16 7 -12 6 4 20 2
32 -5 16 -8 28 -8 45 0 24 10 33 44 15 55 -13 8 -2 48 17 64 9 6 11 12 5 12
-7 0 -19 -8 -28 -17z"/>
<path d="M2375 1530 c-10 -17 12 -37 25 -24 8 8 6 15 -4 23 -10 9 -16 9 -21 1z"/>
<path d="M4695 1510 c-8 -35 10 -96 30 -104 19 -7 30 13 16 27 -6 6 -11 33
-11 59 0 56 -24 68 -35 18z"/>
<path d="M5126 1525 c4 -8 10 -15 15 -15 5 0 9 7 9 15 0 8 -7 15 -15 15 -9 0
-12 -6 -9 -15z"/>
<path d="M2220 1490 c0 -19 3 -21 12 -12 9 9 9 15 0 24 -9 9 -12 7 -12 -12z"/>
<path d="M4987 1463 c-4 -3 -7 -11 -7 -17 0 -6 5 -5 12 2 6 6 9 14 7 17 -3 3
-9 2 -12 -2z"/>
<path d="M2565 1445 c-3 -8 -7 -22 -10 -30 -3 -10 2 -15 15 -15 19 0 36 32 25
50 -9 15 -25 12 -30 -5z"/>
<path d="M2300 1420 c0 -5 5 -10 11 -10 5 0 7 5 4 10 -3 6 -8 10 -11 10 -2 0
-4 -4 -4 -10z"/>
<path d="M2806 1411 c-4 -6 -3 -18 2 -27 8 -15 10 -14 16 2 8 20 -8 42 -18 25z"/>
<path d="M1244 1369 c-10 -17 13 -36 27 -22 12 12 4 33 -11 33 -5 0 -12 -5
-16 -11z"/>
<path d="M3076 1361 c-4 -7 -5 -15 -2 -18 9 -9 19 4 14 18 -4 11 -6 11 -12 0z"/>
<path d="M2780 1345 c-7 -9 -11 -18 -8 -20 3 -3 11 1 18 10 7 9 11 18 8 20 -3
3 -11 -1 -18 -10z"/>
<path d="M3300 1350 c0 -5 4 -10 9 -10 6 0 13 5 16 10 3 6 -1 10 -9 10 -9 0
-16 -4 -16 -10z"/>
<path d="M5520 1328 c0 -9 -3 -23 -6 -32 -4 -11 -1 -16 10 -16 18 0 21 27 6
50 -8 13 -10 13 -10 -2z"/>
<path d="M3000 1315 c0 -8 6 -15 14 -15 7 0 19 7 26 15 11 13 8 15 -14 15 -16
0 -26 -5 -26 -15z"/>
<path d="M3230 1230 c0 -5 5 -10 10 -10 6 0 10 5 10 10 0 6 -4 10 -10 10 -5 0
-10 -4 -10 -10z"/>
<path d="M4040 1225 c0 -8 5 -15 10 -15 6 0 10 7 10 15 0 8 -4 15 -10 15 -5 0
-10 -7 -10 -15z"/>
<path d="M5050 1215 c0 -15 51 -39 61 -28 4 4 -8 15 -27 24 -24 12 -34 13 -34
4z"/>
<path d="M3925 1200 c-3 -5 -1 -10 4 -10 6 0 11 5 11 10 0 6 -2 10 -4 10 -3 0
-8 -4 -11 -10z"/>
<path d="M3700 1174 c0 -8 5 -12 10 -9 6 4 8 11 5 16 -9 14 -15 11 -15 -7z"/>
<path d="M4230 1177 c0 -7 9 -18 20 -25 16 -10 20 -10 20 1 0 14 -20 37 -32
37 -4 0 -8 -6 -8 -13z"/>
<path d="M5745 1130 c3 -5 13 -10 21 -10 8 0 12 5 9 10 -3 6 -13 10 -21 10 -8
0 -12 -4 -9 -10z"/>
<path d="M2765 1120 c-3 -5 1 -10 9 -10 9 0 16 5 16 10 0 6 -4 10 -9 10 -6 0
-13 -4 -16 -10z"/>
<path d="M4220 1066 c0 -14 -5 -26 -11 -26 -6 0 -9 -6 -6 -12 5 -16 40 -12 89
10 42 19 50 40 16 40 -13 1 -38 4 -55 8 -31 6 -33 4 -33 -20z"/>
<path d="M4114 1039 c-3 -6 1 -18 10 -27 14 -14 17 -14 36 3 11 10 20 22 20
27 0 12 -58 10 -66 -3z"/>
<path d="M4357 993 c-6 -16 -17 -32 -24 -36 -20 -12 -16 -39 5 -35 9 2 16 10
15 16 -2 7 6 21 17 32 21 21 27 50 10 50 -6 0 -16 -12 -23 -27z"/>
<path d="M4277 913 c-12 -11 -8 -23 8 -23 8 0 15 7 15 15 0 16 -12 20 -23 8z"/>
<path d="M4138 902 c-35 -4 -35 -19 -3 -55 35 -37 45 -34 45 12 0 45 -4 48
-42 43z"/>
<path d="M4080 810 c0 -5 5 -10 10 -10 6 0 10 5 10 10 0 6 -4 10 -10 10 -5 0
-10 -4 -10 -10z"/>
</g>
</svg>
