<?xml version="1.0" standalone="no"?>
<!DOCTYPE svg PUBLIC "-//W3C//DTD SVG 20010904//EN"
 "http://www.w3.org/TR/2001/REC-SVG-20010904/DTD/svg10.dtd">
<svg version="1.0" xmlns="http://www.w3.org/2000/svg"
 width="378.000000pt" height="378.000000pt" viewBox="0 0 378.000000 378.000000"
 preserveAspectRatio="xMidYMid meet">

<g transform="translate(0.000000,378.000000) scale(0.100000,-0.100000)"
fill="#000000" stroke="none">
<path d="M2135 3505 c-33 -38 -58 -108 -74 -201 -6 -34 -22 -92 -36 -130 -29
-80 -31 -104 -9 -104 8 0 12 -4 9 -10 -4 -6 1 -7 11 -3 13 5 16 3 11 -10 -5
-15 2 -17 51 -17 34 -1 65 -6 76 -15 11 -8 25 -15 32 -15 12 0 59 -44 114
-107 14 -15 25 -37 25 -48 0 -23 30 -28 31 -5 0 8 -6 22 -13 31 -8 9 -18 30
-22 45 -4 16 -25 43 -47 60 -22 16 -39 35 -37 41 2 5 -3 16 -12 23 -8 7 -15
21 -15 33 0 17 5 19 40 13 l40 -6 -3 96 c-3 84 -5 98 -24 112 -12 10 -25 34
-28 55 -6 33 -11 37 -36 37 -16 0 -29 -5 -29 -10 0 -6 -10 -24 -21 -39 -23
-31 -27 -81 -14 -163 6 -40 5 -48 -8 -48 -40 0 -57 171 -27 279 14 52 70 114
94 105 9 -3 16 -12 16 -20 0 -8 5 -14 11 -14 6 0 9 3 7 8 -28 57 -33 62 -58
62 -18 0 -36 -11 -55 -35z"/>
<path d="M1658 3449 c-10 -5 -18 -18 -18 -28 0 -10 -6 -24 -14 -30 -8 -6 -19
-32 -25 -56 -14 -57 -14 -59 -3 -63 9 -3 26 34 23 51 -1 4 6 7 14 7 11 0 12
-6 6 -22 -4 -13 -6 -28 -4 -35 2 -7 -1 -22 -7 -34 -10 -17 -9 -23 1 -30 10 -6
8 -9 -8 -9 -12 0 -30 -3 -40 -6 -15 -5 -15 -4 -3 5 8 5 11 13 7 17 -16 16 -31
-34 -42 -141 -4 -33 -8 -62 -11 -64 -2 -2 3 -13 11 -25 19 -26 19 -46 0 -46
-17 0 -21 -35 -5 -45 6 -3 10 3 10 14 0 20 34 51 57 51 7 0 13 -11 13 -24 0
-14 7 -32 15 -40 14 -14 14 -18 0 -46 -18 -34 -35 -35 -49 -3 -6 13 -20 20
-40 21 -17 0 -25 -2 -20 -6 20 -13 38 -56 25 -60 -15 -5 -3 -82 17 -105 16
-18 14 -23 -19 -89 -13 -26 -11 -32 6 -18 13 11 14 8 9 -19 -5 -23 -2 -32 9
-37 9 -3 13 -12 10 -20 -8 -22 15 -17 52 12 19 14 38 23 44 20 5 -3 17 -3 26
1 16 5 15 8 -5 23 -19 14 -22 23 -16 52 3 20 18 48 33 64 44 48 83 106 83 125
0 9 3 19 8 21 4 2 26 28 49 58 23 30 56 72 74 93 29 35 30 39 15 56 -9 9 -16
22 -16 28 0 6 -6 16 -14 22 -7 6 -23 39 -35 74 -12 34 -26 70 -31 79 -6 10
-10 25 -10 34 0 9 -8 28 -18 42 -10 15 -23 38 -30 52 -19 36 -34 54 -62 73
-28 19 -47 21 -72 6z m106 -76 c20 -28 37 -65 41 -90 3 -23 10 -45 16 -48 5
-4 5 -15 -2 -28 -9 -16 -9 -22 0 -25 16 -5 14 -42 -3 -42 -12 0 -26 39 -30 80
0 8 -9 14 -18 12 -10 -2 -18 3 -18 11 0 17 -44 38 -64 31 -25 -10 -39 39 -21
79 4 9 4 25 1 34 -8 19 9 33 41 33 16 0 34 -15 57 -47z m76 -304 c0 -10 -6
-19 -13 -19 -7 0 -22 -7 -33 -16 -15 -13 -16 -15 -2 -10 13 4 15 1 11 -12 -4
-9 -11 -20 -17 -24 -5 -4 -10 -23 -10 -42 0 -44 -17 -47 -45 -7 -26 36 -26 37
-1 44 13 3 18 11 14 20 -3 8 -1 18 5 22 6 3 11 13 11 21 0 8 -4 13 -9 10 -5
-4 -6 5 -2 19 3 14 17 32 31 39 22 12 27 11 43 -6 9 -11 17 -29 17 -39z m-120
-188 c0 -6 -4 -13 -10 -16 -5 -3 -10 1 -10 9 0 9 5 16 10 16 6 0 10 -4 10 -9z
m-100 -347 c0 -8 -4 -12 -10 -9 -5 3 -10 10 -10 16 0 5 5 9 10 9 6 0 10 -7 10
-16z"/>
<path d="M2203 3414 c-15 -16 -16 -24 -4 -24 8 0 24 30 19 35 -2 2 -9 -3 -15
-11z"/>
<path d="M1580 3249 c0 -5 5 -7 10 -4 6 3 10 8 10 11 0 2 -4 4 -10 4 -5 0 -10
-5 -10 -11z"/>
<path d="M2054 2957 c25 -20 27 -26 17 -44 -15 -28 -14 -33 5 -33 9 0 18 -9
21 -19 3 -13 10 -18 20 -14 9 4 19 -1 25 -10 5 -10 14 -17 21 -17 17 0 18 91
0 108 -7 7 -11 17 -8 22 3 5 -10 6 -30 3 -28 -4 -35 -2 -35 11 0 11 -9 16 -32
16 l-33 0 29 -23z"/>
<path d="M1991 2895 c-14 -14 -21 -30 -18 -39 7 -18 27 -22 27 -6 0 6 9 10 19
10 24 0 32 21 16 43 -15 21 -15 21 -44 -8z"/>
<path d="M1895 2870 c-3 -5 -2 -10 4 -10 5 0 13 5 16 10 3 6 2 10 -4 10 -5 0
-13 -4 -16 -10z"/>
<path d="M2279 2801 c-10 -17 -15 -40 -11 -57 6 -36 78 -124 101 -124 9 0 22
-5 29 -12 6 -6 15 -8 19 -4 4 4 2 10 -4 14 -7 4 -13 37 -15 72 -3 56 -6 66
-25 75 -13 5 -23 17 -23 26 0 12 -37 39 -53 39 -1 0 -9 -13 -18 -29z"/>
<path d="M1855 2780 c-18 -8 -17 -9 8 -9 16 -1 26 3 22 9 -3 6 -7 10 -8 9 -1
0 -11 -4 -22 -9z"/>
<path d="M2039 2763 c-29 -8 -49 -20 -52 -32 -3 -14 0 -17 19 -13 35 7 29 -12
-14 -40 -51 -34 -74 -40 -96 -23 -15 11 -16 17 -8 28 9 11 8 21 -3 45 -22 44
-61 38 -86 -11 -19 -40 -17 -46 9 -21 10 10 18 12 20 6 5 -15 -28 -62 -43 -62
-8 0 -12 -12 -10 -32 2 -31 5 -33 51 -39 27 -4 59 -5 72 -2 16 4 22 1 22 -11
0 -9 7 -17 15 -17 37 -3 38 -4 34 -26 -1 -5 -2 -17 -3 -28 -1 -14 -9 -21 -28
-23 -16 -2 -28 -9 -28 -18 0 -8 -11 -20 -25 -26 -13 -6 -27 -19 -30 -30 -4
-10 -12 -18 -19 -18 -11 0 -20 -12 -44 -62 -2 -5 5 -8 16 -8 11 0 25 -6 31
-14 16 -19 -13 -30 -40 -16 -11 6 -23 9 -28 6 -4 -3 -17 1 -27 9 -28 21 -33
18 -29 -12 2 -16 4 -31 4 -35 1 -5 19 -8 41 -8 37 0 55 -9 96 -48 7 -7 16 -13
19 -12 24 1 25 -3 5 -20 -14 -12 -31 -18 -42 -14 -10 3 -18 1 -18 -5 0 -6 4
-11 9 -11 8 0 12 -23 13 -82 1 -29 18 -40 18 -13 0 9 11 20 24 26 30 14 41 50
21 65 -25 19 -17 26 10 8 14 -9 25 -22 25 -30 0 -8 9 -13 23 -11 16 1 21 -3
19 -15 -1 -9 6 -22 17 -28 22 -11 19 -35 -6 -44 -8 -3 -27 3 -42 14 -21 14
-31 16 -39 8 -20 -20 -14 -36 18 -47 17 -5 30 -17 30 -25 0 -21 -6 -20 -32 4
-14 13 -29 18 -45 14 -17 -5 -31 1 -50 20 -14 14 -34 26 -44 26 -10 0 -21 5
-24 10 -3 6 -16 10 -29 10 -12 0 -26 3 -30 8 -13 12 -96 11 -96 -2 0 -15 -36
-46 -45 -38 -3 4 -3 -2 1 -12 5 -14 9 -15 16 -4 7 10 11 10 22 -4 7 -10 18
-18 25 -18 6 0 11 -6 11 -12 0 -9 4 -8 10 2 8 12 10 11 10 -8 0 -14 8 -26 24
-32 31 -11 35 -19 40 -70 5 -58 21 -72 69 -59 36 10 61 5 54 -9 -1 -4 12 -21
29 -39 17 -17 31 -26 32 -20 1 7 3 23 5 37 5 35 -11 66 -26 51 -9 -9 -8 -14 3
-21 8 -5 11 -13 6 -17 -5 -4 -11 -2 -13 5 -3 6 -8 10 -12 7 -5 -2 -8 8 -7 24
l1 28 63 -5 c35 -3 89 1 120 7 31 7 67 15 79 17 13 2 30 19 39 37 19 36 34 48
48 40 5 -3 6 -1 3 4 -4 6 -1 16 7 22 11 9 23 7 52 -8 60 -30 84 -35 84 -17 0
24 -11 46 -25 46 -6 0 -20 9 -31 21 -15 17 -16 23 -6 40 14 22 8 39 -14 39 -8
0 -14 4 -14 9 0 5 -8 12 -17 15 -26 10 -77 39 -96 56 -73 62 -109 111 -94 127
9 8 59 -21 71 -41 6 -10 22 -31 35 -46 20 -24 27 -26 43 -17 14 9 22 9 36 -1
33 -24 86 -44 124 -46 37 -3 38 -2 38 30 0 29 4 35 28 40 98 21 182 72 182
108 0 8 7 19 15 26 11 9 12 17 4 31 -10 20 -59 27 -59 8 0 -17 -56 -3 -81 20
-18 17 -19 20 -4 34 8 9 22 14 30 11 8 -4 15 -2 15 3 0 9 -30 38 -43 40 -58 9
-83 18 -99 39 -11 13 -24 24 -30 24 -6 0 -18 7 -27 15 -51 46 -60 53 -65 48
-3 -4 -6 0 -6 9 0 8 -12 21 -26 28 -14 8 -31 28 -38 45 -23 52 -63 86 -106 90
-8 1 -36 -5 -61 -12z m-22 -187 c0 -11 -5 -13 -19 -5 -10 5 -18 12 -18 14 0 3
8 5 18 5 10 0 19 -7 19 -14z"/>
<path d="M1746 2301 c-3 -5 1 -11 9 -15 9 -3 15 0 15 9 0 16 -16 20 -24 6z"/>
<path d="M1585 2291 c-7 -12 19 -21 58 -21 18 0 27 4 22 9 -15 13 -73 22 -80
12z"/>
<path d="M1150 2222 c0 -5 16 -16 35 -25 38 -18 46 -10 17 16 -19 18 -52 23
-52 9z"/>
<path d="M990 2160 c-19 -10 -44 -23 -55 -28 -32 -15 -75 -59 -77 -79 -4 -58
-2 -83 9 -83 6 0 14 -4 17 -9 7 -11 -3 -41 -14 -41 -16 0 -75 -63 -72 -77 5
-23 -26 -63 -49 -63 -25 0 -79 -39 -79 -57 0 -7 -7 -13 -15 -13 -8 0 -15 4
-15 9 0 5 -9 13 -20 16 -11 3 -20 14 -20 24 0 9 -4 21 -9 26 -6 6 -11 22 -13
37 -2 15 -7 30 -11 34 -4 4 -2 13 4 20 7 9 7 18 0 31 -6 11 -11 13 -11 5 0 -8
-6 -12 -12 -9 -7 2 -24 0 -37 -5 -14 -5 -32 -6 -40 -2 -27 12 -41 13 -41 3 0
-5 10 -9 21 -9 18 0 19 -2 9 -15 -10 -12 -10 -15 3 -15 22 0 32 -20 16 -32
-10 -6 -7 -7 10 -3 32 9 20 -9 -19 -29 -27 -13 -31 -13 -40 2 -5 10 -10 12
-10 5 0 -7 -9 -13 -19 -13 -11 0 -22 6 -24 13 -4 10 -6 10 -6 0 -1 -19 -21
-16 -21 3 0 15 -2 15 -22 2 -20 -13 -24 -13 -44 11 -22 25 -23 25 -30 6 -10
-27 -25 -36 -49 -29 -15 4 -16 3 -6 -4 11 -8 9 -15 -13 -38 l-26 -29 0 28 c0
50 -48 72 -64 31 -3 -8 -2 -13 3 -10 4 3 17 -1 27 -9 18 -14 18 -15 -6 -35
-33 -26 -45 -25 -69 6 l-20 26 4 -80 c12 -217 132 -581 241 -729 13 -17 24
-36 24 -41 0 -5 14 -7 30 -4 23 3 30 0 30 -12 0 -9 -8 -16 -20 -16 -18 0 -19
-2 -8 -20 11 -18 14 -18 24 -5 6 8 16 15 22 15 6 0 14 9 17 20 3 11 10 20 15
20 5 0 7 -7 3 -16 -5 -14 -1 -16 20 -12 24 5 26 3 21 -18 -8 -30 10 -31 30 -2
12 17 18 19 30 9 13 -11 16 -9 22 13 7 28 34 35 52 14 10 -13 9 -59 -3 -77 -3
-6 1 -14 10 -17 18 -7 62 38 71 74 5 17 9 20 20 11 7 -6 18 -8 25 -4 8 6 8 2
0 -14 -14 -25 1 -61 25 -61 12 0 15 6 10 25 -7 29 1 32 20 8 8 -11 13 -13 14
-6 0 7 7 10 16 6 8 -3 13 -11 10 -18 -3 -8 2 -16 10 -19 16 -6 37 9 47 34 4
12 6 12 6 -2 1 -9 -5 -23 -12 -30 -19 -19 -28 -48 -15 -48 6 0 20 -7 30 -17
10 -9 18 -11 18 -5 0 7 7 9 17 5 12 -5 15 -2 10 10 -4 11 -1 17 8 17 8 0 15 5
15 10 0 6 9 10 20 10 11 0 20 -7 20 -15 0 -26 30 -29 60 -6 30 21 45 15 34
-13 -9 -23 12 -20 30 5 11 16 21 20 39 15 29 -7 52 15 42 41 -6 17 -7 17 -19
1 -18 -25 -29 -22 -20 4 6 20 5 21 -9 10 -16 -14 -67 -7 -67 9 0 5 -6 9 -14 9
-8 0 -23 11 -34 24 -15 20 -22 22 -32 13 -10 -10 -12 -8 -8 9 4 13 -1 25 -13
33 -26 16 -24 43 5 70 19 18 31 22 52 17 17 -5 32 -2 43 8 9 8 27 16 40 18 45
6 48 32 10 80 -20 23 -39 51 -42 61 -4 11 -16 21 -26 24 -18 4 -39 53 -33 76
1 4 -4 7 -11 7 -11 0 -57 61 -57 76 0 14 -31 35 -42 28 -8 -5 -9 -2 -5 9 3 9
0 23 -8 31 -8 8 -15 21 -15 29 0 8 -7 20 -15 27 -8 7 -15 24 -15 39 0 15 -8
37 -17 51 -12 17 -16 43 -15 94 1 87 4 102 24 147 18 42 23 46 67 54 30 5 33
3 51 -40 11 -25 24 -45 30 -45 7 0 9 -8 5 -19 -4 -13 0 -23 12 -30 10 -6 14
-11 8 -11 -5 0 -11 -12 -11 -28 -1 -15 1 -21 3 -14 8 21 32 -6 26 -28 -4 -14
0 -20 11 -20 9 0 16 -7 16 -16 0 -14 2 -15 17 -3 13 11 17 11 20 2 7 -20 23
-15 23 6 0 11 10 27 22 35 19 13 19 16 5 22 -12 4 -15 13 -11 30 4 15 2 24 -5
24 -16 0 -13 29 5 47 12 12 12 18 3 23 -6 4 -8 13 -5 19 4 6 2 11 -4 11 -7 0
-9 8 -5 19 3 11 2 22 -3 25 -5 3 -7 17 -4 31 2 14 0 25 -7 25 -5 0 -8 7 -5 15
4 10 0 15 -15 15 -17 0 -21 6 -21 34 0 19 5 38 10 41 14 9 5 68 -14 97 -9 14
-13 28 -9 31 14 15 -34 5 -67 -13z m-59 -209 c-6 -10 -7 -21 -3 -25 6 -7 -16
-26 -30 -26 -12 0 -9 28 4 50 17 26 43 28 29 1z m-510 -988 c-12 -20 -14 -14
-5 12 4 9 9 14 11 11 3 -2 0 -13 -6 -23z m499 1 c0 -3 -6 -12 -14 -19 -17 -17
-30 -7 -15 12 12 13 29 18 29 7z m-130 -18 c0 -3 -4 -8 -10 -11 -5 -3 -10 -1
-10 4 0 6 5 11 10 11 6 0 10 -2 10 -4z"/>
<path d="M1198 2166 c-51 -27 -52 -28 -33 -42 12 -9 16 -20 11 -38 -3 -15 -3
-26 1 -26 15 1 43 27 43 40 0 8 7 21 15 30 9 10 13 25 9 34 -8 20 -12 20 -46
2z"/>
<path d="M1230 2099 c0 -5 5 -7 10 -4 6 3 10 8 10 11 0 2 -4 4 -10 4 -5 0 -10
-5 -10 -11z"/>
<path d="M1222 2068 c-14 -14 -16 -28 -3 -28 5 0 11 9 14 20 6 23 5 24 -11 8z"/>
<path d="M533 1952 c-8 -5 -9 -12 -2 -22 8 -13 10 -13 19 0 18 27 9 39 -17 22z"/>
<path d="M225 1920 c-3 -11 -14 -20 -22 -20 -9 0 -13 -3 -10 -6 9 -9 97 25 97
37 0 5 -13 9 -29 9 -21 0 -32 -6 -36 -20z"/>
<path d="M2247 1851 c-5 -25 -12 -31 -32 -31 -21 0 -25 -5 -24 -27 0 -16 3
-22 6 -15 3 7 16 17 29 22 27 11 50 58 36 72 -6 6 -12 -3 -15 -21z"/>
<path d="M55 1850 c-3 -5 1 -10 9 -10 9 0 16 5 16 10 0 6 -4 10 -9 10 -6 0
-13 -4 -16 -10z"/>
<path d="M1965 1750 c-3 -5 -1 -10 4 -10 6 0 11 5 11 10 0 6 -2 10 -4 10 -3 0
-8 -4 -11 -10z"/>
<path d="M2450 1710 c0 -13 18 -22 24 -11 3 5 -1 11 -9 15 -8 3 -15 1 -15 -4z"/>
<path d="M1950 1649 c0 -5 5 -7 10 -4 6 3 10 8 10 11 0 2 -4 4 -10 4 -5 0 -10
-5 -10 -11z"/>
<path d="M1143 1581 c1 -11 8 -21 15 -21 12 0 12 3 1 18 -7 9 -14 19 -16 21
-1 2 -1 -6 0 -18z"/>
<path d="M1161 1529 c-7 -12 -8 -18 -3 -15 6 3 21 -3 33 -14 13 -11 20 -20 14
-19 -20 3 -35 -1 -35 -8 0 -8 9 -10 89 -17 23 -2 48 -9 55 -16 8 -9 8 -11 -3
-8 -7 2 -16 -3 -18 -9 -5 -14 15 -17 41 -7 24 9 19 31 -9 38 -14 4 -25 12 -25
19 0 20 -70 72 -100 74 -17 2 -30 -5 -39 -18z"/>
<path d="M1350 1355 c7 -8 16 -15 21 -15 5 0 9 7 9 15 0 9 -9 15 -21 15 -18 0
-19 -2 -9 -15z"/>
<path d="M1415 1290 c4 -6 11 -8 16 -5 14 9 11 15 -7 15 -8 0 -12 -5 -9 -10z"/>
<path d="M1460 1240 c0 -5 7 -10 16 -10 8 0 12 5 9 10 -3 6 -10 10 -16 10 -5
0 -9 -4 -9 -10z"/>
<path d="M2150 1160 c0 -5 5 -10 10 -10 6 0 10 5 10 10 0 6 -4 10 -10 10 -5 0
-10 -4 -10 -10z"/>
<path d="M2102 1093 c1 -10 -17 -55 -40 -101 -40 -76 -42 -85 -32 -121 6 -21
17 -42 26 -45 25 -10 54 -7 54 5 0 6 7 3 16 -5 19 -19 31 -20 38 -3 3 8 8 7
16 -5 8 -14 25 -18 70 -18 33 0 60 4 60 10 0 6 6 10 14 10 21 0 46 28 40 45
-9 23 -37 19 -29 -4 4 -13 0 -20 -13 -23 -15 -4 -17 0 -14 26 5 40 -13 86 -33
86 -21 0 -19 23 6 55 17 21 19 29 9 35 -7 4 -10 12 -6 18 9 15 -21 23 -49 12
-15 -6 -27 -6 -30 0 -3 5 -20 7 -37 3 -24 -5 -29 -3 -23 7 4 7 2 16 -6 21 -23
14 -40 10 -37 -8z m172 -264 c-3 -5 -10 -7 -15 -3 -5 3 -7 10 -3 15 3 5 10 7
15 3 5 -3 7 -10 3 -15z"/>
<path d="M3266 1074 c-4 -10 -1 -14 6 -12 15 5 23 28 10 28 -5 0 -13 -7 -16
-16z"/>
<path d="M3307 1063 c-4 -3 -7 -17 -7 -30 0 -12 -5 -23 -12 -23 -6 0 -24 -15
-39 -32 -23 -28 -31 -31 -46 -22 -10 6 -24 24 -32 40 -17 34 -26 19 -12 -20 6
-14 23 -32 38 -38 38 -16 37 -16 24 -31 -6 -8 -22 -12 -37 -9 -25 4 -58 -23
-48 -40 3 -5 -2 -8 -10 -8 -9 0 -15 5 -13 11 5 27 -22 17 -31 -11 -12 -32 -30
-38 -62 -18 -23 15 -70 -6 -78 -34 -5 -19 -22 -25 -22 -8 0 20 -37 9 -50 -15
-7 -13 -26 -27 -41 -30 -16 -4 -29 -10 -29 -15 0 -4 -8 -6 -18 -3 -12 3 -24
-4 -35 -21 -12 -17 -25 -24 -44 -24 -16 1 -36 -2 -46 -6 -10 -5 -23 -3 -32 4
-19 15 -35 5 -35 -24 0 -29 18 -46 48 -46 15 0 21 -4 16 -12 -4 -6 -8 -25 -8
-41 -1 -17 -7 -32 -14 -35 -30 -10 -55 -52 -31 -52 5 0 7 5 3 12 -5 8 -2 9 12
4 32 -12 38 -12 39 4 0 8 10 25 22 37 16 16 21 31 19 57 -3 34 -1 38 46 61 58
29 68 31 68 10 0 -9 8 -18 18 -21 9 -3 27 -10 40 -15 12 -5 33 -13 47 -19 14
-5 35 -14 48 -19 43 -18 67 -22 67 -12 0 6 -11 11 -23 11 -13 0 -31 8 -39 18
-19 21 -34 77 -18 67 18 -11 42 15 29 31 -8 10 -6 18 9 34 11 12 18 31 16 43
-2 12 -2 16 2 10 8 -18 25 -16 39 4 12 15 18 16 47 5 19 -6 40 -12 47 -12 7 0
29 -11 49 -25 43 -29 59 -31 59 -7 -1 73 15 94 50 66 17 -14 17 -15 -4 -9 -16
4 -21 2 -19 -11 2 -10 13 -18 28 -20 25 -2 26 -1 20 39 -5 38 -4 41 11 29 8
-7 21 -12 29 -11 7 1 21 -1 31 -6 11 -5 23 -3 30 5 7 7 7 10 2 7 -6 -3 -16 6
-22 20 -12 25 -12 25 22 20 33 -5 36 -3 65 49 31 53 32 81 3 70 -9 -4 -21 -1
-29 4 -9 9 -18 6 -33 -9 -23 -23 -46 -27 -56 -11 -5 8 -11 7 -20 0 -24 -20
-43 9 -37 52 5 37 2 45 -11 31z m-373 -369 c3 -8 2 -12 -4 -9 -6 3 -10 10 -10
16 0 14 7 11 14 -7z"/>
<path d="M3195 1051 c-3 -5 -1 -12 5 -16 5 -3 10 1 10 9 0 18 -6 21 -15 7z"/>
<path d="M1930 1019 c0 -5 5 -7 10 -4 6 3 10 8 10 11 0 2 -4 4 -10 4 -5 0 -10
-5 -10 -11z"/>
<path d="M2905 968 c-16 -6 -32 -12 -33 -14 -8 -6 20 -114 29 -109 5 4 9 14 9
24 0 15 6 17 43 12 50 -7 87 -3 87 10 0 5 -20 9 -45 9 l-44 0 2 36 c2 42 -5
47 -48 32z m35 -15 c0 -5 -4 -15 -10 -23 -11 -18 -25 -7 -17 15 6 15 27 21 27
8z"/>
<path d="M2782 897 c-23 -24 -28 -62 -13 -86 8 -13 15 -12 50 5 46 21 54 39
16 32 l-25 -5 26 24 c30 28 27 47 -7 51 -16 2 -33 -6 -47 -21z m33 -22 c-16
-14 -32 -20 -33 -15 -6 17 19 40 42 40 19 -1 18 -3 -9 -25z"/>
<path d="M2700 873 c0 -13 -8 -24 -20 -28 -11 -3 -20 -11 -20 -16 0 -6 9 -7
20 -4 18 6 20 2 20 -37 0 -57 13 -77 28 -44 7 16 8 28 2 31 -16 10 -11 67 8
88 15 18 15 20 1 14 -9 -3 -22 0 -28 6 -8 8 -11 5 -11 -10z"/>
<path d="M380 845 c-10 -13 -9 -15 8 -15 15 0 20 5 16 15 -4 8 -7 15 -9 15 -1
0 -8 -7 -15 -15z"/>
<path d="M495 850 c-3 -5 -1 -10 4 -10 6 0 11 5 11 10 0 6 -2 10 -4 10 -3 0
-8 -4 -11 -10z"/>
<path d="M1235 846 l-39 -11 29 -28 c17 -15 26 -27 22 -27 -4 0 -3 -9 3 -21
11 -20 12 -20 31 -3 10 9 19 23 19 31 0 7 3 14 8 14 58 9 58 9 54 -23 -4 -25
-2 -29 14 -26 12 2 18 11 16 22 -2 10 6 25 17 33 29 20 26 30 -11 42 -43 13
-114 12 -163 -3z"/>
<path d="M2495 820 c-3 -5 1 -10 10 -10 9 0 13 5 10 10 -3 6 -8 10 -10 10 -2
0 -7 -4 -10 -10z"/>
<path d="M2593 812 c-16 -10 -21 -84 -6 -89 7 -3 13 10 15 33 2 21 9 39 16 42
9 3 13 -3 10 -19 -2 -16 2 -24 12 -24 14 0 16 20 5 53 -5 13 -33 16 -52 4z"/>
<path d="M732 755 c-1 -14 2 -25 7 -25 14 0 33 28 26 40 -12 19 -31 10 -33
-15z"/>
<path d="M2447 773 c-4 -3 -7 -21 -7 -39 0 -69 -20 -82 -47 -31 l-17 32 -11
-45 c-6 -25 -15 -45 -20 -45 -5 0 -20 15 -32 34 -26 39 -27 37 -12 -25 10 -39
18 -48 40 -46 3 1 12 -17 18 -39 11 -35 10 -44 -3 -58 -21 -24 -20 -28 10 -35
19 -5 24 -11 19 -26 -5 -14 -2 -20 9 -20 9 0 16 6 16 13 0 31 22 36 46 10 13
-14 24 -21 24 -14 0 6 10 11 23 11 22 0 66 40 99 92 17 26 17 27 -12 42 -17 8
-32 10 -36 5 -3 -5 -21 -9 -39 -9 -24 0 -45 -9 -69 -31 -38 -33 -61 -31 -52 6
4 15 -1 28 -13 39 -16 15 -18 23 -9 47 9 26 11 27 25 13 31 -31 48 -13 54 56
6 70 6 73 -4 63z m83 -241 c0 -10 -7 -27 -15 -38 -13 -18 -14 -18 -9 6 9 38
13 50 19 50 3 0 5 -8 5 -18z"/>
<path d="M1495 760 c-4 -6 -16 -8 -28 -4 -21 6 -21 6 -4 -13 17 -20 17 -21 -5
-27 -13 -4 -18 -10 -11 -12 7 -3 9 -12 6 -20 -4 -12 0 -11 24 2 24 14 29 24
29 51 -1 36 -2 38 -11 23z"/>
<path d="M1210 750 c0 -5 5 -10 10 -10 6 0 10 5 10 10 0 6 -4 10 -10 10 -5 0
-10 -4 -10 -10z"/>
<path d="M2510 738 c0 -24 16 -56 23 -48 3 3 2 20 0 38 -6 36 -23 44 -23 10z"/>
<path d="M1316 704 c-4 -9 -4 -19 -2 -21 8 -8 26 8 26 23 0 19 -16 18 -24 -2z"/>
<path d="M580 659 c0 -5 5 -7 10 -4 6 3 10 8 10 11 0 2 -4 4 -10 4 -5 0 -10
-5 -10 -11z"/>
<path d="M1560 640 c0 -5 4 -10 9 -10 6 0 13 5 16 10 3 6 -1 10 -9 10 -9 0
-16 -4 -16 -10z"/>
<path d="M2970 635 c0 -8 4 -15 10 -15 5 0 7 7 4 15 -4 8 -8 15 -10 15 -2 0
-4 -7 -4 -15z"/>
<path d="M2145 590 c-3 -5 -1 -10 4 -10 6 0 11 5 11 10 0 6 -2 10 -4 10 -3 0
-8 -4 -11 -10z"/>
<path d="M2710 581 c0 -10 30 -24 37 -17 3 2 -5 9 -16 16 -12 6 -21 7 -21 1z"/>
<path d="M2250 560 c0 -5 5 -10 11 -10 5 0 7 5 4 10 -3 6 -8 10 -11 10 -2 0
-4 -4 -4 -10z"/>
<path d="M2246 499 c3 -6 0 -15 -7 -20 -23 -15 23 -10 50 5 l23 13 -23 6 c-36
10 -51 8 -43 -4z"/>
<path d="M2184 474 c9 -8 20 -12 26 -9 19 12 10 25 -16 25 -23 0 -24 -1 -10
-16z"/>
<path d="M2313 445 c-6 -14 -9 -25 -6 -25 7 0 32 33 33 43 0 16 -16 5 -27 -18z"/>
<path d="M2426 414 c-4 -10 0 -24 8 -33 18 -18 23 -14 28 19 4 29 -26 41 -36
14z"/>
<path d="M2275 410 c-3 -5 -1 -10 4 -10 6 0 11 5 11 10 0 6 -2 10 -4 10 -3 0
-8 -4 -11 -10z"/>
<path d="M2197 401 c-17 -6 -17 -8 2 -25 21 -19 21 -19 21 7 0 15 -1 27 -2 26
-2 0 -11 -4 -21 -8z"/>
</g>
</svg>
