<?xml version="1.0" standalone="no"?>
<!DOCTYPE svg PUBLIC "-//W3C//DTD SVG 20010904//EN"
 "http://www.w3.org/TR/2001/REC-SVG-20010904/DTD/svg10.dtd">
<svg version="1.0" xmlns="http://www.w3.org/2000/svg"
 width="64.000000pt" height="63.000000pt" viewBox="0 0 64.000000 63.000000"
 preserveAspectRatio="xMidYMid meet">

<g transform="translate(0.000000,63.000000) scale(0.100000,-0.100000)"
fill="#000000" stroke="none">
<path d="M355 569 c-4 -6 -5 -12 -2 -15 2 -3 7 2 10 11 7 17 1 20 -8 4z"/>
<path d="M357 539 c-24 -14 -21 -34 6 -46 22 -10 24 -9 22 18 -2 36 -6 40 -28
28z"/>
<path d="M272 515 c-6 -13 -8 -26 -4 -30 3 -3 5 -22 3 -41 -3 -43 2 -43 27 0
15 25 26 33 43 31 13 -1 16 0 7 2 -10 2 -21 15 -24 28 -8 33 -39 38 -52 10z
m29 -28 c-10 -9 -11 -8 -5 6 3 10 9 15 12 12 3 -3 0 -11 -7 -18z"/>
<path d="M345 451 c-3 -7 -14 -10 -22 -9 -9 2 -18 -3 -20 -9 -3 -7 2 -13 11
-13 22 0 20 -13 -4 -28 -20 -12 -20 -13 7 -38 l28 -25 -38 7 c-38 6 -38 6 -25
-15 15 -25 60 -28 78 -6 7 8 16 12 21 9 5 -3 9 -1 9 5 0 6 -9 15 -21 21 -11 7
-18 14 -16 17 3 3 13 0 23 -5 25 -14 70 14 51 31 -7 7 -27 25 -44 40 -20 19
-33 25 -38 18z"/>
<path d="M380 451 c0 -6 5 -13 10 -16 6 -3 10 1 10 9 0 9 -4 16 -10 16 -5 0
-10 -4 -10 -9z"/>
<path d="M161 337 c-5 -13 -16 -29 -25 -36 -13 -11 -17 -11 -22 3 -3 9 -10 16
-16 16 -5 0 -7 -4 -3 -9 3 -5 -9 -11 -27 -13 -28 -2 -34 -8 -36 -31 -2 -15 6
-47 18 -71 18 -38 25 -44 53 -44 18 -1 47 -5 65 -11 33 -10 46 2 15 14 -17 6
-17 7 0 20 17 12 17 15 -8 50 -26 39 -32 70 -16 80 6 3 15 -4 21 -16 17 -30
23 -17 15 30 -8 46 -21 53 -34 18z"/>
<path d="M200 256 c0 -2 7 -7 16 -10 8 -3 12 -2 9 4 -6 10 -25 14 -25 6z"/>
<path d="M346 173 c-4 -9 -1 -20 6 -25 15 -9 30 -6 29 5 -1 4 -1 14 -1 22 0
20 -26 19 -34 -2z"/>
<path d="M535 170 c-3 -5 -37 -23 -75 -41 -38 -17 -67 -35 -65 -39 7 -12 46 1
52 17 3 8 13 11 23 8 11 -3 20 0 24 10 3 8 14 15 25 15 25 0 51 10 51 20 0 12
-29 20 -35 10z"/>
<path d="M218 143 c7 -3 16 -2 19 1 4 3 -2 6 -13 5 -11 0 -14 -3 -6 -6z"/>
</g>
</svg>
